<svg width="68" height="92" viewBox="0 0 68 92" fill="none" xmlns="http://www.w3.org/2000/svg">
<path d="M52.1732 50.7097C49.8543 54.7192 44.8702 56.3685 41.5617 55.4448C40.073 55.0292 39.4194 54.1966 39.2175 53.1204C38.9896 51.9057 39.3085 50.1628 40.382 48.0604C43.2798 42.9542 47.3858 41.2757 50.4707 42.137C51.8123 42.5115 52.6457 43.5214 52.9674 45.068C53.2958 46.6469 53.0455 48.6914 52.1732 50.7097Z" fill="black" stroke="black" stroke-width="3"/>
<path d="M14.2419 50.7097C16.5608 54.7192 21.5449 56.3685 24.8534 55.4448C26.3421 55.0292 26.9957 54.1966 27.1976 53.1204C27.4255 51.9057 27.1066 50.1628 26.0331 48.0604C23.1353 42.9542 19.0293 41.2757 15.9444 42.137C14.6028 42.5115 13.7694 43.5214 13.4477 45.068C13.1193 46.6469 13.3696 48.6914 14.2419 50.7097Z" fill="black" stroke="black" stroke-width="3"/>
<path d="M29.5032 74.784C32.4328 72.589 34.0745 72.9886 37.004 74.784" stroke="black" stroke-width="3" stroke-linecap="round" stroke-linejoin="round"/>
<path d="M3.29265 19.3242C4.79272 18.6731 7.79311 19.4231 10.0433 20.9233" stroke="black" stroke-width="2" stroke-linecap="round" stroke-linejoin="round"/>
<path d="M9.83122 27.2419C9.08125 22.7415 11.3315 20.4912 15.5893 21.1834" stroke="black" stroke-width="2" stroke-linecap="round" stroke-linejoin="round"/>
<path d="M63.636 29.057C61.873 29.2435 60.0084 29.101 58.7985 28.4241" stroke="black" stroke-width="2" stroke-linecap="round" stroke-linejoin="round"/>
<path d="M56.5309 23.9236C58.6206 27.6743 57.3591 30.5949 53.3981 31.6671" stroke="black" stroke-width="2" stroke-linecap="round" stroke-linejoin="round"/>
<path d="M45.9343 4.4216C47.999 7.18916 47.973 10.0049 46.0518 12.581" stroke="black" stroke-width="2" stroke-linecap="round" stroke-linejoin="round"/>
<path d="M40.7967 13.096C44.8387 10.9798 47.6785 12.4159 48.3489 16.6773" stroke="black" stroke-width="2" stroke-linecap="round" stroke-linejoin="round"/>
<path d="M16.0439 13.4225C12.421 10.5291 13.1149 9.58515 12.2292 6.23333" stroke="black" stroke-width="2" stroke-linecap="round" stroke-linejoin="round"/>
<path d="M23.5782 23.9236C23.8539 28.4778 21.3809 30.4807 17.2186 29.3474" stroke="black" stroke-width="2" stroke-linecap="round" stroke-linejoin="round"/>
<path d="M26.5855 18.9263C23.9318 16.2521 24.0799 13.076 26.8157 10.5854" stroke="black" stroke-width="2" stroke-linecap="round" stroke-linejoin="round"/>
<path d="M57.0457 11.8494C59.2747 15.8304 57.919 18.7095 53.6781 19.4993" stroke="black" stroke-width="2" stroke-linecap="round" stroke-linejoin="round"/>
<path d="M47.9825 29.3471C43.4222 29.4882 41.4933 26.9572 42.7489 22.8302" stroke="black" stroke-width="2" stroke-linecap="round" stroke-linejoin="round"/>
<path d="M55.7982 35.9248C65.7791 38.9762 64.049 59.1773 49.0474 61.4275" stroke="black" stroke-width="3" stroke-linecap="round" stroke-linejoin="round"/>
<path d="M10.4683 36.2689C0.487403 39.3203 2.21744 59.5214 17.2191 61.7716" stroke="black" stroke-width="3" stroke-linecap="round" stroke-linejoin="round"/>
<path d="M34.3022 7.42188C34.7961 9.67211 35.7779 13.8416 34.3022 15.6727C33.2275 17.4298 33.6134 18.4159 34.3022 20.1732C35.1814 22.1825 35.3097 23.2045 34.3022 24.6737C32.9978 27.4401 32.9234 28.9256 34.3022 31.4244" stroke="black" stroke-width="3" stroke-linecap="round" stroke-linejoin="round"/>
<path d="M34.941 7.67983C20.5445 -3.82938 -7.40462 6.39058 7.04297 38.1751" stroke="black" stroke-width="3" stroke-linecap="round" stroke-linejoin="round"/>
<path d="M35.6913 7.67976C46.0471 -3.07929 77.0079 5.75036 61.2561 38.7538" stroke="black" stroke-width="3" stroke-linecap="round" stroke-linejoin="round"/>
<path d="M54.2981 59.9274C36.2962 103.432 26.5451 92.9309 12.2937 60.6775" stroke="black" stroke-width="3" stroke-linecap="round" stroke-linejoin="round"/>
</svg>
