<svg width="88" height="82" viewBox="0 0 88 82" fill="none" xmlns="http://www.w3.org/2000/svg">
<path d="M68.6252 51.3154C68.6252 52.3174 68.1493 53.4038 67.0139 54.5341C65.8729 55.67 64.1457 56.7619 61.8913 57.7111C57.3887 59.607 51.0642 60.8154 44.0002 60.8154C36.9363 60.8154 30.6118 59.607 26.1092 57.7111C23.8548 56.7619 22.1276 55.67 20.9865 54.5341C19.8512 53.4038 19.3752 52.3174 19.3752 51.3154C19.3752 50.3134 19.8512 49.227 20.9865 48.0968C22.1276 46.9609 23.8548 45.8689 26.1092 44.9197C30.6118 43.0239 36.9363 41.8154 44.0002 41.8154C51.0642 41.8154 57.3887 43.0239 61.8913 44.9197C64.1457 45.8689 65.8729 46.9609 67.0139 48.0968C68.1493 49.227 68.6252 50.3134 68.6252 51.3154Z" stroke="#8FE6EC" stroke-width="3"/>
<path d="M87 32.7529C87 34.2584 85.7535 35.8905 83.1228 37.2059C80.5518 38.4914 76.9301 39.3154 72.875 39.3154C68.8199 39.3154 65.1982 38.4914 62.6272 37.2059C59.9964 35.8905 58.75 34.2584 58.75 32.7529C58.75 31.2474 59.9964 29.6152 62.6272 28.2998C65.1982 27.0143 68.8199 26.1904 72.875 26.1904C76.9301 26.1904 80.5518 27.0143 83.1228 28.2998C85.7535 29.6152 87 31.2474 87 32.7529Z" stroke="#8FE6EC" stroke-width="2"/>
<path d="M43.8637 50.0919L36.4375 1.81541" stroke="#8FE6EC" stroke-width="2" stroke-linecap="round" stroke-linejoin="round"/>
<circle cx="69.1362" cy="78.5638" r="2.64255" fill="#8FE6EC" stroke="#8FE6EC"/>
<circle cx="18.8552" cy="78.5638" r="2.64255" fill="#8FE6EC" stroke="#8FE6EC"/>
<path d="M66.1002 45.9452L71 39.5" stroke="#8FE6EC" stroke-width="2" stroke-linecap="round" stroke-linejoin="round"/>
<path d="M1.00001 32.7529C1.00001 34.2584 2.24645 35.8905 4.87724 37.2059C7.4482 38.4914 11.0699 39.3154 15.125 39.3154C19.1801 39.3154 22.8018 38.4914 25.3728 37.2059C28.0036 35.8905 29.25 34.2584 29.25 32.7529C29.25 31.2474 28.0036 29.6152 25.3728 28.2998C22.8018 27.0143 19.1801 26.1904 15.125 26.1904C11.0699 26.1904 7.4482 27.0143 4.87724 28.2998C2.24645 29.6152 1.00001 31.2474 1.00001 32.7529Z" stroke="#8FE6EC" stroke-width="2"/>
<path d="M21.9 45.9452L16.9999 39.5" stroke="#8FE6EC" stroke-width="2" stroke-linecap="round" stroke-linejoin="round"/>
<path d="M69.23 78.5638L65.0367 56.8154" stroke="#8FE6EC" stroke-width="2" stroke-linecap="round" stroke-linejoin="round"/>
<path d="M69.23 78.5638L56.4533 59.9796" stroke="#8FE6EC" stroke-width="2" stroke-linecap="round" stroke-linejoin="round"/>
<path d="M68.6494 78.5638L44.8384 61.1411" stroke="#8FE6EC" stroke-width="2" stroke-linecap="round" stroke-linejoin="round"/>
<path d="M18.4473 78.5638L22.6405 56.8154" stroke="#8FE6EC" stroke-width="2" stroke-linecap="round" stroke-linejoin="round"/>
<circle cx="43.9958" cy="51.8521" r="2.64255" fill="#8FE6EC" stroke="#8FE6EC"/>
<circle cx="36.1394" cy="3.14255" r="2.64255" fill="#8FE6EC" stroke="#8FE6EC"/>
<circle cx="21.2121" cy="18.0697" r="2.85691" stroke="#8FE6EC"/>
<path d="M18.4473 78.5638L31.2239 59.9796" stroke="#8FE6EC" stroke-width="2" stroke-linecap="round" stroke-linejoin="round"/>
<path d="M19.0278 78.5638L42.8388 61.1411" stroke="#8FE6EC" stroke-width="2" stroke-linecap="round" stroke-linejoin="round"/>
<path d="M36.1395 3.14254L23.5 15.5" stroke="#8FE6EC" stroke-width="2" stroke-linecap="round" stroke-linejoin="round"/>
</svg>
