<svg width="58" height="61" viewBox="0 0 58 61" fill="none" xmlns="http://www.w3.org/2000/svg">
<path d="M25.4913 58.5893L26.7611 39.7287" stroke="#ABEB83" stroke-width="2" stroke-linecap="round" stroke-linejoin="round"/>
<path d="M33.1097 58.6859L31.8401 40.0716" stroke="#ABEB83" stroke-width="2" stroke-linecap="round" stroke-linejoin="round"/>
<circle cx="29.3005" cy="32.1099" r="5.98385" stroke="#ABEB83" stroke-width="2"/>
<path d="M23.5203 28.9354L26.1262 3.85705" stroke="#ABEB83" stroke-width="2" stroke-linecap="round" stroke-linejoin="round"/>
<path d="M34.9483 28.9354L32.4751 3.85705" stroke="#ABEB83" stroke-width="2" stroke-linecap="round" stroke-linejoin="round"/>
<path d="M26.1262 3.85703C26.7611 0.0476709 31.8403 0.0476648 32.4752 3.85702" stroke="#ABEB83" stroke-width="2" stroke-linecap="round" stroke-linejoin="round"/>
<path d="M33.1099 27.6656L53.5254 42.4616" stroke="#ABEB83" stroke-width="2" stroke-linecap="round" stroke-linejoin="round"/>
<path d="M28.5 38.1859L50.3509 47.9599" stroke="#ABEB83" stroke-width="2" stroke-linecap="round" stroke-linejoin="round"/>
<path d="M53.5257 42.4616C56.5073 44.9161 53.9677 49.3148 50.3513 47.9599" stroke="#ABEB83" stroke-width="2" stroke-linecap="round" stroke-linejoin="round"/>
<path d="M24.2214 28.3005L4.47457 42.4616" stroke="#ABEB83" stroke-width="2" stroke-linecap="round" stroke-linejoin="round"/>
<path d="M29.3007 38.4589L7.64899 47.9601" stroke="#ABEB83" stroke-width="2" stroke-linecap="round" stroke-linejoin="round"/>
<path d="M4.47426 42.4616C1.49271 44.9161 4.03228 49.3148 7.64873 47.9599" stroke="#ABEB83" stroke-width="2" stroke-linecap="round" stroke-linejoin="round"/>
<path d="M20 59.6859H38.5" stroke="#ABEB83" stroke-width="2" stroke-linecap="round" stroke-linejoin="round"/>
<path d="M18.3953 6.88501C9.40117 9.1646 5.08775 16.1739 3.47022 20.4873" stroke="#ABEB83" stroke-width="2" stroke-linecap="round" stroke-linejoin="round"/>
<path d="M18.3589 13.9198C12.8878 15.7176 9.32082 20.4105 8.30013 25.6247" stroke="#ABEB83" stroke-width="2" stroke-linecap="round" stroke-linejoin="round"/>
<line x1="2.22752" y1="24.9906" x2="2.06288" y2="25.7725" stroke="#ABEB83" stroke-width="2" stroke-linecap="round" stroke-linejoin="round"/>
</svg>
