<svg width="92" height="89" viewBox="0 0 92 89" fill="none" xmlns="http://www.w3.org/2000/svg">
<path d="M86.5 44C86.5 67.4721 67.4721 86.5 44 86.5C20.5279 86.5 1.5 67.4721 1.5 44C1.5 20.5279 20.5279 1.5 44 1.5C67.4721 1.5 86.5 20.5279 86.5 44Z" stroke="#ABEB83" stroke-width="3"/>
<path d="M39.1685 85.348C38.6685 82.848 40.1685 82.848 40.7666 81.348C41.0524 80.4275 41.1242 79.5676 40.6685 78.848C39.5044 77.0099 41.6339 75.5475 41.7614 73.348C42.0801 67.8465 41.3249 65.2744 35.6685 59.348" stroke="#ABEB83" stroke-width="2" stroke-linecap="round" stroke-linejoin="round"/>
<path d="M35.5342 59.2253C34.2341 57.792 34.3101 57.1058 36.0039 56.0991C36.5358 55.726 37.1686 55.348 36.7397 54.348C36.5421 53.8873 35.5342 53.1861 36.4179 52.6176C39.1686 50.848 37.1685 49.348 37.1685 48.348" stroke="#ABEB83" stroke-width="2" stroke-linecap="round" stroke-linejoin="round"/>
<path d="M37.1684 48.3484C37.1684 44.8481 41.6684 46.3481 45.1683 46.3482C48.4411 46.3888 49.6685 48.348 52.6683 49.3481C55.0751 50.1877 56.4153 50.3745 56.6685 53.348C56.9053 54.6211 57.4284 54.6519 58.6685 54.1505C59.9936 53.544 60.5133 53.764 61.1685 55.1536C61.4435 55.7303 61.7193 55.7841 62.3315 55.6202C64.8128 54.9048 65.5837 55.4153 66.3331 57.2258" stroke="#ABEB83" stroke-width="2" stroke-linecap="round" stroke-linejoin="round"/>
<path d="M40.1686 85.348C40.5028 83.9846 41.1685 82.8481 42.6685 81.8481C44.1686 80.8481 44.1099 79.685 44.1685 79.348C44.394 77.9664 46.1685 76.848 47.6685 76.3481C49.8084 75.6886 50.6457 74.6206 51.6685 73.348L53.8703 70.9185C55.6685 68.848 55.5748 68.7417 58.1685 67.848C61.6685 66.348 61.6685 64.348 63.1685 62.348C65.1685 60.348 67.074 58.476 66.1685 56.848" stroke="#ABEB83" stroke-width="2" stroke-linecap="round" stroke-linejoin="round"/>
<path d="M37.5 46.5C34 46.5 33.8907 45.3664 32.5 43C31.5952 41.8333 31 42.5 30.5 42.5C29.7654 42.7461 29.5268 42.6196 29.5 41.8333C27.5151 41.2137 27.2033 40.8364 26.5 39.5" stroke="#ABEB83" stroke-width="2" stroke-linecap="round" stroke-linejoin="round"/>
<path d="M26.5 39.5001C22.6925 32.6466 27.5001 30 32.5 31C34.5001 31.4001 34.5228 33.3304 34.9998 35" stroke="#ABEB83" stroke-width="2" stroke-linecap="round" stroke-linejoin="round"/>
<path d="M18.0001 11.9999C20.0123 14.0153 19.6611 14.9354 18.5001 16.5C13 23.5 16.5001 26 19.5002 34.9999C20.2322 37.1957 23.4386 39.6499 25.5001 41C27.5 42 28 41 30 42.5" stroke="#ABEB83" stroke-width="2" stroke-linecap="round" stroke-linejoin="round"/>
<path d="M86 41.4998C83.6329 42.3997 81.6642 42.4449 79.7515 41.6833C78.3816 41.3586 76.7307 41.6833 76.2516 40.0423C75.6841 38.6758 74.1448 38.156 73.5817 36.5C73.1777 35.3117 73.9185 33.4999 73.1701 32.4999C71.5001 29.4999 71.642 27.3991 73.9185 24.4999C75.4671 22.5277 76.3854 20.4985 77 18.4999" stroke="#ABEB83" stroke-width="2" stroke-linecap="round" stroke-linejoin="round"/>
<path d="M74.5881 15.8091C75.0349 15.4845 75.134 14.8592 74.8095 14.4123C74.4849 13.9655 73.8595 13.8664 73.4127 14.1909L74.5881 15.8091ZM61.817 4.92319C61.4984 4.47205 60.8745 4.36461 60.4233 4.68319C59.9722 5.00178 59.8648 5.62576 60.1833 6.0769L61.817 4.92319ZM64.5001 11.6046L65.471 11.365L65.4549 11.2998L65.4302 11.2372L64.5001 11.6046ZM67.2495 14.5L67.2495 13.5L67.2331 13.5L67.2167 13.5006L67.2495 14.5ZM65.4302 11.2372C64.6164 9.17691 63.3642 7.11399 61.817 4.92319L60.1833 6.0769C61.6922 8.21349 62.8412 10.1267 63.57 11.9719L65.4302 11.2372ZM73.4127 14.1909C72.7509 14.6716 71.901 14.6565 70.747 14.3546C70.1628 14.2017 69.6451 14.0188 69.0361 13.8352C68.4838 13.6687 67.8488 13.5 67.2495 13.5L67.2495 15.5C67.5254 15.5 67.9094 15.5845 68.4589 15.7501C68.9517 15.8986 69.6186 16.1267 70.2408 16.2894C71.4997 16.6188 73.1499 16.8537 74.5881 15.8091L73.4127 14.1909ZM67.2167 13.5006C66.8013 13.5142 66.513 13.3851 66.2591 13.11C65.969 12.7956 65.6881 12.2451 65.471 11.365L63.5292 11.8441C63.7848 12.8802 64.1748 13.8004 64.7893 14.4663C65.4399 15.1714 66.2899 15.532 67.2822 15.4995L67.2167 13.5006Z" fill="#ABEB83"/>
<path d="M35 35C34 30 35.5735 28.903 37.0601 28.2381C38.8087 27.7083 39.1862 27.1161 39.3151 25.7924C39.3315 24.739 39.6117 24.242 41.2116 23.7355C42.1437 23.2496 42.74 23.0077 42.7009 22.1203C42.5269 21.1317 43.2064 20.5541 45.1169 19.5C46.2086 19.0632 46.3194 18.6828 46.5 18" stroke="#ABEB83" stroke-width="2" stroke-linecap="round" stroke-linejoin="round"/>
<path d="M46.6203 17.6748C47.5 15 42.1769 12.5 41.7238 14.6851C40.2732 21.6812 25.5 14.5 36.9999 9.00004C37.7895 8.6224 36.8998 7.10819 34.5 6.5C31.5001 5.73974 30.5 10 28 6" stroke="#ABEB83" stroke-width="2" stroke-linecap="round" stroke-linejoin="round"/>
</svg>
