<svg width="46" height="61" viewBox="0 0 46 61" fill="none" xmlns="http://www.w3.org/2000/svg">
<path d="M20.5 59.1127L21.5 31.6128" stroke="#ABEB83" stroke-width="2" stroke-linecap="round" stroke-linejoin="round"/>
<path d="M26.4999 59.2537L25.5 32.1127" stroke="#ABEB83" stroke-width="2" stroke-linecap="round" stroke-linejoin="round"/>
<circle cx="23.5" cy="25.6127" r="4.5" stroke="#ABEB83" stroke-width="2"/>
<path d="M18.9478 23.1127L21 3.36273" stroke="#ABEB83" stroke-width="2" stroke-linecap="round" stroke-linejoin="round"/>
<path d="M27.9478 23.1127L26 3.36273" stroke="#ABEB83" stroke-width="2" stroke-linecap="round" stroke-linejoin="round"/>
<path d="M21 3.36273C21.5 0.362743 25.5 0.362738 26 3.36272" stroke="#ABEB83" stroke-width="2" stroke-linecap="round" stroke-linejoin="round"/>
<path d="M26.5 22.1127L42.5779 33.765" stroke="#ABEB83" stroke-width="2" stroke-linecap="round" stroke-linejoin="round"/>
<path d="M22 29.907L40.0779 38.0952" stroke="#ABEB83" stroke-width="2" stroke-linecap="round" stroke-linejoin="round"/>
<path d="M42.5781 33.765C44.9261 35.698 42.9261 39.1621 40.0781 38.0951" stroke="#ABEB83" stroke-width="2" stroke-linecap="round" stroke-linejoin="round"/>
<path d="M19.5 22.6127L3.94873 33.765" stroke="#ABEB83" stroke-width="2" stroke-linecap="round" stroke-linejoin="round"/>
<path d="M23.5001 30.6127L6.4487 38.0952" stroke="#ABEB83" stroke-width="2" stroke-linecap="round" stroke-linejoin="round"/>
<path d="M3.94856 33.765C1.60049 35.698 3.60049 39.1621 6.44855 38.0951" stroke="#ABEB83" stroke-width="2" stroke-linecap="round" stroke-linejoin="round"/>
<path d="M15 59.2537H31" stroke="#ABEB83" stroke-width="2" stroke-linecap="round" stroke-linejoin="round"/>
<path d="M14.9116 5.74738C7.82849 7.54262 4.43154 13.0627 3.15768 16.4596" stroke="#ABEB83" stroke-width="2" stroke-linecap="round" stroke-linejoin="round"/>
<path d="M14.8831 11.2875C10.5744 12.7033 7.7653 16.3991 6.96147 20.5055" stroke="#ABEB83" stroke-width="2" stroke-linecap="round" stroke-linejoin="round"/>
</svg>
