<svg width="64" height="63" viewBox="0 0 64 63" fill="none" xmlns="http://www.w3.org/2000/svg">
<circle cx="31.9995" cy="31.1127" r="21" transform="rotate(45 31.9995 31.1127)" stroke="#ABEB83" stroke-width="2"/>
<path d="M38.8572 25.5308L33.3023 41.2698C33.0108 42.0958 31.8735 42.1744 31.4711 41.3964L28.5839 35.8146C28.2986 35.263 27.8492 34.8135 27.2975 34.5282L21.7159 31.6412C20.9379 31.2387 21.0165 30.1015 21.8425 29.8099L37.5814 24.255C38.3737 23.9753 39.1368 24.7384 38.8572 25.5308Z" stroke="#ABEB83" stroke-width="2"/>
<line x1="28.4641" y1="34.6482" x2="37.6565" y2="25.4558" stroke="#ABEB83" stroke-width="2" stroke-linecap="round" stroke-linejoin="round"/>
<line x1="42.6062" y1="21.2132" x2="46.8488" y2="16.9705" stroke="#ABEB83" stroke-linecap="round" stroke-linejoin="round"/>
<line x1="41.899" y1="41.7193" x2="46.1416" y2="45.9619" stroke="#ABEB83" stroke-linecap="round" stroke-linejoin="round"/>
<line x1="17.1502" y1="16.9705" x2="21.3929" y2="21.2132" stroke="#ABEB83" stroke-linecap="round" stroke-linejoin="round"/>
<path d="M32.1 13.0567C31.866 12.7087 31.734 12.4687 31.674 12.3067H30.372C30.408 12.5827 30.42 12.8527 30.42 13.2007V16.3567C30.42 16.8007 30.408 17.0647 30.372 17.2987H31.65C31.614 17.0407 31.602 16.7767 31.602 16.3627V15.0187C31.602 14.7247 31.59 14.3947 31.56 14.1247C31.728 14.4427 31.83 14.6227 31.992 14.8627L33.102 16.5367C33.306 16.8487 33.444 17.0707 33.552 17.2987H34.866C34.836 17.0467 34.818 16.7707 34.818 16.4047V13.2187C34.818 12.8287 34.83 12.5767 34.866 12.3067H33.588C33.624 12.5827 33.636 12.8227 33.636 13.2187V14.5867C33.636 14.9227 33.648 15.1987 33.672 15.4747C33.528 15.2107 33.414 15.0187 33.24 14.7607L32.1 13.0567Z" fill="#ABEB83"/>
<path d="M51.134 32.2187C50.876 32.2487 50.612 32.2607 50.156 32.2607H48.608V31.2527H49.904C50.318 31.2527 50.522 31.2647 50.804 31.2947V30.1847C50.444 30.2207 50.3 30.2267 49.904 30.2267H48.608V29.3447H50.168C50.57 29.3447 50.786 29.3567 51.062 29.3867V28.2647C50.78 28.2947 50.576 28.3067 50.168 28.3067H48.254C47.786 28.3067 47.618 28.3007 47.372 28.2887C47.408 28.5827 47.42 28.7927 47.42 29.1647V32.4407C47.42 32.8547 47.408 33.0767 47.372 33.3167C47.63 33.3047 47.798 33.2987 48.254 33.2987H50.144C50.66 33.2987 50.876 33.3107 51.134 33.3407V32.2187Z" fill="#ABEB83"/>
<path d="M18.28 33.2987C18.298 33.1547 18.352 32.9267 18.43 32.6447L19.39 29.0507C19.468 28.7507 19.552 28.4687 19.612 28.3067H18.25C18.244 28.5167 18.22 28.6907 18.16 28.9667L17.782 30.7547C17.758 30.8507 17.716 31.1387 17.698 31.2707C17.662 31.5227 17.662 31.5227 17.65 31.6367C17.572 31.1507 17.53 30.9527 17.482 30.7607L16.996 28.9127C16.918 28.6307 16.882 28.4627 16.858 28.3067H15.79C15.766 28.4747 15.73 28.6607 15.658 28.9307L15.178 30.7907C15.142 30.9167 15.1 31.1327 15.01 31.6367C14.938 31.1627 14.896 30.8807 14.878 30.7907L14.494 28.9667C14.446 28.7147 14.416 28.5227 14.41 28.3067H13.042C13.102 28.4687 13.186 28.7447 13.27 29.0507L14.23 32.6507C14.32 32.9987 14.35 33.1247 14.38 33.2987H15.574C15.592 33.1367 15.628 32.9627 15.706 32.6627L16.15 30.8927C16.222 30.6107 16.294 30.2327 16.33 29.9867C16.39 30.3827 16.438 30.6587 16.498 30.8927L16.954 32.6567C17.014 32.8967 17.056 33.1067 17.08 33.2987H18.28Z" fill="#ABEB83"/>
<path d="M30.222 48.7927C30.264 49.0687 30.294 49.2067 30.354 49.3507C30.48 49.6927 30.702 49.9507 31.002 50.1187C31.326 50.3047 31.83 50.4127 32.34 50.4127C33.042 50.4127 33.57 50.2387 33.918 49.9027C34.194 49.6327 34.338 49.2487 34.338 48.7987C34.338 48.2467 34.122 47.8447 33.69 47.5747C33.462 47.4307 33.174 47.3287 32.718 47.2327C32.01 47.0887 32.01 47.0887 31.89 47.0347C31.698 46.9447 31.608 46.8187 31.608 46.6507C31.608 46.3747 31.878 46.1767 32.244 46.1767C32.7 46.1767 32.916 46.3387 32.988 46.7287L34.26 46.5907C34.182 46.2487 34.11 46.0687 33.96 45.8707C33.636 45.4207 33.054 45.1867 32.292 45.1867C31.11 45.1867 30.366 45.7687 30.366 46.6927C30.366 47.1787 30.57 47.5807 30.948 47.8447C31.17 48.0007 31.362 48.0727 31.914 48.1927C32.538 48.3367 32.688 48.3787 32.814 48.4387C32.97 48.5107 33.066 48.6727 33.066 48.8587C33.066 49.1947 32.79 49.3987 32.328 49.3987C32.022 49.3987 31.77 49.2967 31.626 49.1167C31.536 48.9967 31.494 48.8887 31.47 48.6727L30.222 48.7927Z" fill="#ABEB83"/>
<line x1="17.8574" y1="45.9619" x2="22.1001" y2="41.7193" stroke="#ABEB83" stroke-linecap="round" stroke-linejoin="round"/>
</svg>
