<svg width="88" height="88" viewBox="0 0 88 88" fill="none" xmlns="http://www.w3.org/2000/svg">
<circle cx="43.5281" cy="43.5281" r="29.779" transform="rotate(45 43.5281 43.5281)" stroke="#ABEB83" stroke-width="2"/>
<path d="M54.054 34.278L45.1131 59.6107C44.8216 60.4367 43.6843 60.5153 43.2819 59.7373L38.2785 50.0641C37.9932 49.5125 37.5437 49.063 36.9921 48.7777L27.319 43.7744C26.541 43.372 26.6196 42.2347 27.4456 41.9432L52.7782 33.0022C53.5706 32.7225 54.3337 33.4856 54.054 34.278Z" stroke="#ABEB83" stroke-width="2"/>
<path d="M38.5 49L53 34" stroke="#ABEB83" stroke-width="2" stroke-linecap="round" stroke-linejoin="round"/>
<line x1="58.3672" y1="29.2533" x2="63.8779" y2="23.7426" stroke="#ABEB83" stroke-width="2" stroke-linecap="round" stroke-linejoin="round"/>
<line x1="57.8029" y1="58.3672" x2="63.3136" y2="63.878" stroke="#ABEB83" stroke-width="2" stroke-linecap="round" stroke-linejoin="round"/>
<line x1="23.1779" y1="23.7426" x2="28.6886" y2="29.2533" stroke="#ABEB83" stroke-width="2" stroke-linecap="round" stroke-linejoin="round"/>
<path d="M42.8305 17.0922C42.5965 16.7442 42.4645 16.5042 42.4045 16.3422H41.1025C41.1385 16.6182 41.1505 16.8882 41.1505 17.2362V20.3922C41.1505 20.8362 41.1385 21.1002 41.1025 21.3342H42.3805C42.3445 21.0762 42.3325 20.8122 42.3325 20.3982V19.0542C42.3325 18.7602 42.3205 18.4302 42.2905 18.1602C42.4585 18.4782 42.5605 18.6582 42.7225 18.8982L43.8325 20.5722C44.0365 20.8842 44.1745 21.1062 44.2825 21.3342H45.5965C45.5665 21.0822 45.5485 20.8062 45.5485 20.4402V17.2542C45.5485 16.8642 45.5605 16.6122 45.5965 16.3422H44.3185C44.3545 16.6182 44.3665 16.8582 44.3665 17.2542V18.6222C44.3665 18.9582 44.3785 19.2342 44.4025 19.5102C44.2585 19.2462 44.1445 19.0542 43.9705 18.7962L42.8305 17.0922Z" fill="#ABEB83"/>
<path d="M70.6484 44.639C70.3904 44.669 70.1264 44.681 69.6704 44.681H68.1224V43.673H69.4184C69.8324 43.673 70.0364 43.685 70.3184 43.715V42.605C69.9584 42.641 69.8144 42.647 69.4184 42.647H68.1224V41.765H69.6824C70.0844 41.765 70.3004 41.777 70.5764 41.807V40.685C70.2944 40.715 70.0904 40.727 69.6824 40.727H67.7684C67.3004 40.727 67.1324 40.721 66.8864 40.709C66.9224 41.003 66.9344 41.213 66.9344 41.585V44.861C66.9344 45.275 66.9224 45.497 66.8864 45.737C67.1444 45.725 67.3124 45.719 67.7684 45.719H69.6584C70.1744 45.719 70.3904 45.731 70.6484 45.761V44.639Z" fill="#ABEB83"/>
<path d="M21.2268 45.719C21.2448 45.575 21.2988 45.347 21.3768 45.065L22.3368 41.471C22.4148 41.171 22.4988 40.889 22.5588 40.727H21.1968C21.1908 40.937 21.1668 41.111 21.1068 41.387L20.7288 43.175C20.7048 43.271 20.6628 43.559 20.6448 43.691C20.6088 43.943 20.6088 43.943 20.5968 44.057C20.5188 43.571 20.4768 43.373 20.4288 43.181L19.9428 41.333C19.8648 41.051 19.8288 40.883 19.8048 40.727H18.7368C18.7128 40.895 18.6768 41.081 18.6048 41.351L18.1248 43.211C18.0888 43.337 18.0468 43.553 17.9568 44.057C17.8848 43.583 17.8428 43.301 17.8248 43.211L17.4408 41.387C17.3928 41.135 17.3628 40.943 17.3568 40.727H15.9888C16.0488 40.889 16.1328 41.165 16.2168 41.471L17.1768 45.071C17.2668 45.419 17.2968 45.545 17.3268 45.719H18.5208C18.5388 45.557 18.5748 45.383 18.6528 45.083L19.0968 43.313C19.1688 43.031 19.2408 42.653 19.2768 42.407C19.3368 42.803 19.3848 43.079 19.4448 43.313L19.9008 45.077C19.9608 45.317 20.0028 45.527 20.0268 45.719H21.2268Z" fill="#ABEB83"/>
<path d="M40.9525 68.9967C40.9945 69.2727 41.0245 69.4107 41.0845 69.5547C41.2105 69.8967 41.4325 70.1547 41.7325 70.3227C42.0565 70.5087 42.5605 70.6167 43.0705 70.6167C43.7725 70.6167 44.3005 70.4427 44.6485 70.1067C44.9245 69.8367 45.0685 69.4527 45.0685 69.0027C45.0685 68.4507 44.8525 68.0487 44.4205 67.7787C44.1925 67.6347 43.9045 67.5327 43.4485 67.4367C42.7405 67.2927 42.7405 67.2927 42.6205 67.2387C42.4285 67.1487 42.3385 67.0227 42.3385 66.8547C42.3385 66.5787 42.6085 66.3807 42.9745 66.3807C43.4305 66.3807 43.6465 66.5427 43.7185 66.9327L44.9905 66.7947C44.9125 66.4527 44.8405 66.2727 44.6905 66.0747C44.3665 65.6247 43.7845 65.3907 43.0225 65.3907C41.8405 65.3907 41.0965 65.9727 41.0965 66.8967C41.0965 67.3827 41.3005 67.7847 41.6785 68.0487C41.9005 68.2047 42.0925 68.2767 42.6445 68.3967C43.2685 68.5407 43.4185 68.5827 43.5445 68.6427C43.7005 68.7147 43.7965 68.8767 43.7965 69.0627C43.7965 69.3987 43.5205 69.6027 43.0585 69.6027C42.7525 69.6027 42.5005 69.5007 42.3565 69.3207C42.2665 69.2007 42.2245 69.0927 42.2005 68.8767L40.9525 68.9967Z" fill="#ABEB83"/>
<line x1="23.7424" y1="63.8779" x2="29.2531" y2="58.3672" stroke="#ABEB83" stroke-width="2" stroke-linecap="round" stroke-linejoin="round"/>
</svg>
