<svg width="430" height="440" viewBox="0 0 430 440" fill="none" xmlns="http://www.w3.org/2000/svg">
<g clip-path="url(#clip0)">
<rect width="430" height="440" fill="white"/>
<rect width="430" height="440" fill="#151515"/>
<path d="M52.2201 55.1587C51.6425 56.1004 50.4336 56.4577 49.7529 56.2676C49.7076 56.255 49.6771 56.2428 49.6576 56.2336C49.6397 56.1112 49.6586 55.7594 49.9555 55.1713C50.8077 53.6827 51.8016 53.5078 52.2583 53.6353C52.3071 53.6489 52.3172 53.6615 52.3223 53.6677C52.3227 53.6682 52.323 53.6686 52.3233 53.6689C52.3364 53.6845 52.3783 53.7439 52.4074 53.8836C52.4669 54.1698 52.4352 54.6353 52.2201 55.1587ZM49.6288 56.2171C49.6288 56.2171 49.6297 56.2177 49.6314 56.2191C49.6296 56.2179 49.6288 56.2172 49.6288 56.2171Z" fill="#202020" stroke="#202020" stroke-width="3"/>
<path d="M41.0579 55.1587C41.6355 56.1004 42.8444 56.4577 43.5251 56.2676C43.5703 56.255 43.6009 56.2428 43.6204 56.2336C43.6382 56.1112 43.6193 55.7594 43.3224 55.1713C42.4702 53.6827 41.4764 53.5078 41.0196 53.6353C40.9709 53.6489 40.9607 53.6615 40.9556 53.6677C40.9553 53.6682 40.955 53.6686 40.9547 53.6689C40.9416 53.6845 40.8996 53.7439 40.8706 53.8836C40.811 54.1698 40.8427 54.6353 41.0579 55.1587ZM43.6492 56.2171C43.6491 56.2171 43.6482 56.2177 43.6466 56.2191C43.6484 56.2179 43.6492 56.2172 43.6492 56.2171Z" fill="#202020" stroke="#202020" stroke-width="3"/>
<path d="M45.3761 63.8127C46.3748 63.0644 46.9345 63.2007 47.9332 63.8127" stroke="#202020" stroke-linecap="round" stroke-linejoin="round"/>
<path d="M36.4407 44.906C36.9521 44.684 37.975 44.9397 38.7421 45.4511" stroke="#202020" stroke-width="0.5" stroke-linecap="round" stroke-linejoin="round"/>
<path d="M38.6698 47.6052C38.4141 46.0709 39.1812 45.3038 40.6328 45.5398" stroke="#202020" stroke-width="0.5" stroke-linecap="round" stroke-linejoin="round"/>
<path d="M57.0123 48.224C56.4112 48.2875 55.7756 48.239 55.3631 48.0082" stroke="#202020" stroke-width="0.5" stroke-linecap="round" stroke-linejoin="round"/>
<path d="M54.5901 46.474C55.3025 47.7526 54.8724 48.7483 53.5221 49.1138" stroke="#202020" stroke-width="0.5" stroke-linecap="round" stroke-linejoin="round"/>
<path d="M50.9775 39.8255C51.6814 40.769 51.6726 41.7289 51.0176 42.6072" stroke="#202020" stroke-width="0.5" stroke-linecap="round" stroke-linejoin="round"/>
<path d="M49.2262 42.7828C50.6041 42.0613 51.5723 42.5509 51.8008 44.0036" stroke="#202020" stroke-width="0.5" stroke-linecap="round" stroke-linejoin="round"/>
<path d="M40.7877 42.894C39.5526 41.9077 39.7892 41.5858 39.4872 40.4432" stroke="#202020" stroke-width="0.5" stroke-linecap="round" stroke-linejoin="round"/>
<path d="M43.3562 46.4739C43.4502 48.0265 42.6071 48.7093 41.1882 48.323" stroke="#202020" stroke-width="0.5" stroke-linecap="round" stroke-linejoin="round"/>
<path d="M44.3815 44.7704C43.4768 43.8587 43.5273 42.7759 44.4599 41.9269" stroke="#202020" stroke-width="0.5" stroke-linecap="round" stroke-linejoin="round"/>
<path d="M54.7655 42.3577C55.5254 43.7149 55.0633 44.6964 53.6175 44.9657" stroke="#202020" stroke-width="0.5" stroke-linecap="round" stroke-linejoin="round"/>
<path d="M51.6759 48.3229C50.1212 48.371 49.4636 47.5082 49.8917 46.1012" stroke="#202020" stroke-width="0.5" stroke-linecap="round" stroke-linejoin="round"/>
<path d="M54.3403 50.5653C57.7429 51.6056 57.1531 58.4923 52.0389 59.2594" stroke="#202020" stroke-linecap="round" stroke-linejoin="round"/>
<path d="M38.8868 50.6826C35.4843 51.7228 36.074 58.6095 41.1882 59.3767" stroke="#202020" stroke-linecap="round" stroke-linejoin="round"/>
<path d="M47.0122 40.8484C47.1806 41.6155 47.5153 43.0369 47.0122 43.6612C46.6458 44.2602 46.7774 44.5963 47.0122 45.1954C47.3119 45.8804 47.3557 46.2288 47.0122 46.7297C46.5675 47.6728 46.5422 48.1792 47.0122 49.0311" stroke="#202020" stroke-linecap="round" stroke-linejoin="round"/>
<path d="M47.2299 40.9363C42.322 37.0127 32.7939 40.4968 37.7192 51.3324" stroke="#202020" stroke-linecap="round" stroke-linejoin="round"/>
<path d="M47.4857 40.9363C51.0161 37.2684 61.5709 40.2785 56.201 51.5297" stroke="#202020" stroke-linecap="round" stroke-linejoin="round"/>
<path d="M53.829 58.748C47.6919 73.5791 44.3677 69.9992 39.5093 59.0037" stroke="#202020" stroke-linecap="round" stroke-linejoin="round"/>
<path d="M47 180.5C38.9919 180.5 32.5 174.008 32.5 166C32.5 165.443 32.5314 164.894 32.5924 164.353C34.015 164.461 35.0427 163.724 35.3013 162.686C35.4419 162.122 35.3334 161.511 34.9563 161.004C34.6763 160.628 34.2638 160.329 33.7333 160.139C35.985 155.05 41.0785 151.5 47 151.5C55.0081 151.5 61.5 157.992 61.5 166C61.5 168.515 60.8603 170.879 59.7349 172.939C59.2456 172.649 58.7424 172.529 58.2626 172.564C57.6264 172.611 57.0798 172.93 56.7182 173.395C56.0606 174.241 56.0423 175.506 56.9666 176.532C54.3679 178.992 50.8605 180.5 47 180.5Z" stroke="#202020"/>
<circle cx="42" cy="166.263" r="3.18421" stroke="#202020"/>
<circle cx="50.9474" cy="167.842" r="2.13158" stroke="#202020"/>
<circle cx="51.4737" cy="158.368" r="1.60526" stroke="#202020"/>
<circle cx="47.2631" cy="173.632" r="1.60526" stroke="#202020"/>
<circle cx="46.614" cy="268" r="6.5" stroke="#202020"/>
<path d="M42.1302 266.939C42.4735 265.131 44.3586 264.047 46.4786 264.001C48.5858 263.956 50.5764 264.948 51.0829 266.916C51.1038 266.997 51.114 267.092 51.114 267.198V269C51.114 269.828 50.4424 270.5 49.614 270.5H43.614C42.7856 270.5 42.114 269.828 42.114 269V267.141C42.114 267.063 42.1193 266.996 42.1302 266.939Z" stroke="#202020"/>
<path d="M52.614 270.75C55.6139 272.25 54.864 272 54.864 280.5" stroke="#202020" stroke-linecap="round" stroke-linejoin="round"/>
<path d="M40.614 270.75C37.614 271.75 38.3501 273.25 38.3502 280.552" stroke="#202020" stroke-linecap="round" stroke-linejoin="round"/>
<line x1="46.614" y1="283" x2="46.614" y2="289" stroke="#202020" stroke-linecap="round" stroke-linejoin="round"/>
<line x1="45.614" y1="277.5" x2="43.614" y2="277.5" stroke="#202020" stroke-linecap="round" stroke-linejoin="round"/>
<line x1="45.614" y1="279.5" x2="43.614" y2="279.5" stroke="#202020" stroke-linecap="round" stroke-linejoin="round"/>
<path d="M53.114 267.501C55.8739 267.501 55.864 267.501 54.8953 272.5" stroke="#202020" stroke-linecap="round" stroke-linejoin="round"/>
<path d="M40.1139 267.501C37.5138 267.501 37.6139 267.25 38.3639 272" stroke="#202020" stroke-linecap="round" stroke-linejoin="round"/>
<line x1="52.114" y1="277.5" x2="52.114" y2="290" stroke="#202020" stroke-linecap="round" stroke-linejoin="round"/>
<line x1="41.114" y1="277" x2="41.114" y2="289.5" stroke="#202020" stroke-linecap="round" stroke-linejoin="round"/>
<rect x="38.114" y="280.5" width="2.9671" height="1.83364" rx="0.916821" stroke="#202020"/>
<rect x="52.114" y="280.5" width="2.9671" height="1.83364" rx="0.916821" stroke="#202020"/>
<path d="M47.2238 289.103C48.2644 287.662 50.6396 287.599 51.966 289.113C52.0571 289.217 52.114 289.377 52.114 289.576C52.114 290.086 51.7004 290.5 51.1903 290.5H48.0987C47.5549 290.5 47.114 290.059 47.114 289.515C47.114 289.336 47.1558 289.197 47.2238 289.103Z" stroke="#202020"/>
<path d="M41.2238 289.103C42.2644 287.662 44.6396 287.599 45.966 289.113C46.0571 289.217 46.114 289.377 46.114 289.576C46.114 290.086 45.7004 290.5 45.1903 290.5H42.0987C41.5549 290.5 41.114 290.059 41.114 289.515C41.114 289.336 41.1558 289.197 41.2238 289.103Z" stroke="#202020"/>
<circle cx="48.614" cy="278.5" r="1.5" stroke="#202020"/>
<path d="M55.4064 387.494C55.4064 387.839 55.2422 388.212 54.8537 388.599C54.4633 388.988 53.8731 389.361 53.1038 389.685C51.5671 390.332 49.4094 390.744 47.0001 390.744C44.5908 390.744 42.4332 390.332 40.8965 389.685C40.1271 389.361 39.5369 388.988 39.1465 388.599C38.758 388.212 38.5939 387.839 38.5939 387.494C38.5939 387.148 38.758 386.775 39.1465 386.389C39.5369 386 40.1271 385.627 40.8965 385.303C42.4332 384.656 44.5908 384.244 47.0001 384.244C49.4094 384.244 51.5671 384.656 53.1038 385.303C53.8731 385.627 54.4633 386 54.8537 386.389C55.2422 386.775 55.4064 387.148 55.4064 387.494Z" stroke="#202020"/>
<path d="M61.5 381.166C61.5 381.586 61.1461 382.102 60.2662 382.542C59.4161 382.967 58.2068 383.244 56.8437 383.244C55.4807 383.244 54.2714 382.967 53.4213 382.542C52.5414 382.102 52.1875 381.586 52.1875 381.166C52.1875 380.745 52.5414 380.23 53.4213 379.79C54.2714 379.365 55.4807 379.088 56.8437 379.088C58.2068 379.088 59.4161 379.365 60.2662 379.79C61.1461 380.23 61.5 380.745 61.5 381.166Z" stroke="#202020"/>
<path d="M46.9536 387.077L44.4219 370.619" stroke="#202020" stroke-linecap="round" stroke-linejoin="round"/>
<circle cx="55.5691" cy="396.783" r="0.571325" fill="#202020" stroke="#202020"/>
<circle cx="38.4279" cy="396.783" r="0.571325" fill="#202020" stroke="#202020"/>
<path d="M54.5341 385.663L56.375 383.275" stroke="#202020" stroke-linecap="round" stroke-linejoin="round"/>
<path d="M32.5 381.166C32.5 381.586 32.8539 382.102 33.7338 382.542C34.5839 382.967 35.7932 383.244 37.1563 383.244C38.5193 383.244 39.7286 382.967 40.5787 382.542C41.4586 382.102 41.8125 381.586 41.8125 381.166C41.8125 380.745 41.4586 380.23 40.5787 379.79C39.7286 379.365 38.5193 379.088 37.1563 379.088C35.7932 379.088 34.5839 379.365 33.7338 379.79C32.8539 380.23 32.5 380.745 32.5 381.166Z" stroke="#202020"/>
<path d="M39.466 385.663L37.6251 383.275" stroke="#202020" stroke-linecap="round" stroke-linejoin="round"/>
<path d="M55.6011 396.783L54.1716 389.369" stroke="#202020" stroke-linecap="round" stroke-linejoin="round"/>
<path d="M55.6011 396.783L51.2454 390.448" stroke="#202020" stroke-linecap="round" stroke-linejoin="round"/>
<path d="M55.4032 396.783L47.2858 390.844" stroke="#202020" stroke-linecap="round" stroke-linejoin="round"/>
<path d="M38.2888 396.783L39.7183 389.369" stroke="#202020" stroke-linecap="round" stroke-linejoin="round"/>
<circle cx="46.9986" cy="387.677" r="0.571325" fill="#202020" stroke="#202020"/>
<circle cx="44.3202" cy="371.071" r="0.571325" fill="#202020" stroke="#202020"/>
<circle cx="39.2315" cy="376.16" r="1.30349" stroke="#202020"/>
<path d="M38.2888 396.783L42.6445 390.448" stroke="#202020" stroke-linecap="round" stroke-linejoin="round"/>
<path d="M38.4867 396.783L46.6041 390.844" stroke="#202020" stroke-linecap="round" stroke-linejoin="round"/>
<path d="M44.3203 371.071L40.035 375.089" stroke="#202020" stroke-linecap="round" stroke-linejoin="round"/>
<path d="M163.115 385.611C162.322 386.982 160.617 387.547 159.484 387.231C158.973 387.088 158.746 386.801 158.677 386.429C158.598 386.012 158.708 385.415 159.075 384.697C160.064 382.953 161.469 382.377 162.527 382.672C162.99 382.801 163.276 383.149 163.386 383.68C163.499 384.221 163.413 384.921 163.115 385.611Z" fill="#202020" stroke="#202020"/>
<path d="M150.163 385.611C150.956 386.982 152.661 387.547 153.794 387.231C154.305 387.088 154.532 386.801 154.601 386.429C154.68 386.012 154.57 385.415 154.203 384.697C153.214 382.953 151.809 382.377 150.751 382.672C150.288 382.801 150.002 383.149 149.892 383.68C149.779 384.221 149.865 384.921 150.163 385.611Z" fill="#202020" stroke="#202020"/>
<path d="M155.376 393.813C156.375 393.064 156.934 393.201 157.933 393.813" stroke="#202020" stroke-linecap="round" stroke-linejoin="round"/>
<path d="M146.441 374.906C146.952 374.684 147.975 374.94 148.742 375.451" stroke="#202020" stroke-width="0.5" stroke-linecap="round" stroke-linejoin="round"/>
<path d="M148.67 377.605C148.414 376.071 149.181 375.304 150.633 375.54" stroke="#202020" stroke-width="0.5" stroke-linecap="round" stroke-linejoin="round"/>
<path d="M167.012 378.224C166.411 378.288 165.776 378.239 165.363 378.008" stroke="#202020" stroke-width="0.5" stroke-linecap="round" stroke-linejoin="round"/>
<path d="M164.59 376.474C165.302 377.753 164.872 378.748 163.522 379.114" stroke="#202020" stroke-width="0.5" stroke-linecap="round" stroke-linejoin="round"/>
<path d="M160.978 369.826C161.681 370.769 161.673 371.729 161.018 372.607" stroke="#202020" stroke-width="0.5" stroke-linecap="round" stroke-linejoin="round"/>
<path d="M159.226 372.783C160.604 372.061 161.572 372.551 161.801 374.004" stroke="#202020" stroke-width="0.5" stroke-linecap="round" stroke-linejoin="round"/>
<path d="M150.788 372.894C149.553 371.908 149.789 371.586 149.487 370.443" stroke="#202020" stroke-width="0.5" stroke-linecap="round" stroke-linejoin="round"/>
<path d="M153.356 376.474C153.45 378.026 152.607 378.709 151.188 378.323" stroke="#202020" stroke-width="0.5" stroke-linecap="round" stroke-linejoin="round"/>
<path d="M154.381 374.77C153.477 373.859 153.527 372.776 154.46 371.927" stroke="#202020" stroke-width="0.5" stroke-linecap="round" stroke-linejoin="round"/>
<path d="M164.766 372.358C165.525 373.715 165.063 374.696 163.618 374.966" stroke="#202020" stroke-width="0.5" stroke-linecap="round" stroke-linejoin="round"/>
<path d="M161.676 378.323C160.121 378.371 159.464 377.508 159.892 376.101" stroke="#202020" stroke-width="0.5" stroke-linecap="round" stroke-linejoin="round"/>
<path d="M164.34 380.565C167.743 381.606 167.153 388.492 162.039 389.259" stroke="#202020" stroke-linecap="round" stroke-linejoin="round"/>
<path d="M148.887 380.683C145.484 381.723 146.074 388.61 151.188 389.377" stroke="#202020" stroke-linecap="round" stroke-linejoin="round"/>
<path d="M157.012 370.848C157.181 371.616 157.515 373.037 157.012 373.661C156.646 374.26 156.777 374.596 157.012 375.195C157.312 375.88 157.356 376.229 157.012 376.73C156.568 377.673 156.542 378.179 157.012 379.031" stroke="#202020" stroke-linecap="round" stroke-linejoin="round"/>
<path d="M157.23 370.936C152.322 367.013 142.794 370.497 147.719 381.332" stroke="#202020" stroke-linecap="round" stroke-linejoin="round"/>
<path d="M157.486 370.936C161.016 367.268 171.571 370.279 166.201 381.53" stroke="#202020" stroke-linecap="round" stroke-linejoin="round"/>
<path d="M163.829 388.748C157.692 403.579 154.368 399.999 149.509 389.004" stroke="#202020" stroke-linecap="round" stroke-linejoin="round"/>
<path d="M157 69.5C148.992 69.5 142.5 63.0081 142.5 55C142.5 54.443 142.531 53.8936 142.592 53.3533C144.015 53.4609 145.043 52.7238 145.301 51.6864C145.442 51.122 145.333 50.5106 144.956 50.004C144.676 49.6279 144.264 49.3289 143.733 49.1388C145.985 44.0496 151.079 40.5 157 40.5C165.008 40.5 171.5 46.9919 171.5 55C171.5 57.5147 170.86 59.8787 169.735 61.9394C169.246 61.6494 168.742 61.5289 168.263 61.5643C167.626 61.6113 167.08 61.9299 166.718 62.395C166.061 63.2407 166.042 64.5061 166.967 65.5317C164.368 67.992 160.86 69.5 157 69.5Z" stroke="#202020"/>
<circle cx="152" cy="55.2631" r="3.18421" stroke="#202020"/>
<circle cx="160.947" cy="56.8421" r="2.13158" stroke="#202020"/>
<circle cx="161.474" cy="47.3684" r="1.60526" stroke="#202020"/>
<circle cx="157.263" cy="62.6316" r="1.60526" stroke="#202020"/>
<circle cx="156.614" cy="158" r="6.5" stroke="#202020"/>
<path d="M152.13 156.939C152.474 155.131 154.359 154.047 156.479 154.001C158.586 153.956 160.576 154.948 161.083 156.916C161.104 156.997 161.114 157.092 161.114 157.198V159C161.114 159.828 160.442 160.5 159.614 160.5H153.614C152.786 160.5 152.114 159.828 152.114 159V157.141C152.114 157.063 152.119 156.996 152.13 156.939Z" stroke="#202020"/>
<path d="M162.614 160.75C165.614 162.25 164.864 162 164.864 170.5" stroke="#202020" stroke-linecap="round" stroke-linejoin="round"/>
<path d="M150.614 160.75C147.614 161.75 148.35 163.25 148.35 170.552" stroke="#202020" stroke-linecap="round" stroke-linejoin="round"/>
<line x1="156.614" y1="173" x2="156.614" y2="179" stroke="#202020" stroke-linecap="round" stroke-linejoin="round"/>
<line x1="155.614" y1="167.5" x2="153.614" y2="167.5" stroke="#202020" stroke-linecap="round" stroke-linejoin="round"/>
<line x1="155.614" y1="169.5" x2="153.614" y2="169.5" stroke="#202020" stroke-linecap="round" stroke-linejoin="round"/>
<path d="M163.114 157.501C165.874 157.501 165.864 157.501 164.895 162.5" stroke="#202020" stroke-linecap="round" stroke-linejoin="round"/>
<path d="M150.114 157.501C147.514 157.501 147.614 157.25 148.364 162" stroke="#202020" stroke-linecap="round" stroke-linejoin="round"/>
<line x1="162.114" y1="167.5" x2="162.114" y2="180" stroke="#202020" stroke-linecap="round" stroke-linejoin="round"/>
<line x1="151.114" y1="167" x2="151.114" y2="179.5" stroke="#202020" stroke-linecap="round" stroke-linejoin="round"/>
<rect x="148.114" y="170.5" width="2.9671" height="1.83364" rx="0.916821" stroke="#202020"/>
<rect x="162.114" y="170.5" width="2.9671" height="1.83364" rx="0.916821" stroke="#202020"/>
<path d="M157.224 179.103C158.264 177.662 160.639 177.599 161.966 179.113C162.057 179.217 162.114 179.377 162.114 179.576C162.114 180.086 161.7 180.5 161.19 180.5H158.099C157.555 180.5 157.114 180.059 157.114 179.515C157.114 179.336 157.156 179.197 157.224 179.103Z" stroke="#202020"/>
<path d="M151.224 179.103C152.264 177.662 154.639 177.599 155.966 179.113C156.057 179.217 156.114 179.377 156.114 179.576C156.114 180.086 155.7 180.5 155.19 180.5H152.099C151.555 180.5 151.114 180.059 151.114 179.515C151.114 179.336 151.156 179.197 151.224 179.103Z" stroke="#202020"/>
<circle cx="158.614" cy="168.5" r="1.5" stroke="#202020"/>
<path d="M165.406 278.494C165.406 278.839 165.242 279.212 164.854 279.599C164.463 279.988 163.873 280.361 163.104 280.685C161.567 281.332 159.409 281.744 157 281.744C154.591 281.744 152.433 281.332 150.896 280.685C150.127 280.361 149.537 279.988 149.147 279.599C148.758 279.212 148.594 278.839 148.594 278.494C148.594 278.148 148.758 277.775 149.147 277.389C149.537 277 150.127 276.627 150.896 276.303C152.433 275.656 154.591 275.244 157 275.244C159.409 275.244 161.567 275.656 163.104 276.303C163.873 276.627 164.463 277 164.854 277.389C165.242 277.775 165.406 278.148 165.406 278.494Z" stroke="#202020"/>
<path d="M171.5 272.166C171.5 272.586 171.146 273.102 170.266 273.542C169.416 273.967 168.207 274.244 166.844 274.244C165.481 274.244 164.271 273.967 163.421 273.542C162.541 273.102 162.188 272.586 162.188 272.166C162.188 271.745 162.541 271.23 163.421 270.79C164.271 270.365 165.481 270.088 166.844 270.088C168.207 270.088 169.416 270.365 170.266 270.79C171.146 271.23 171.5 271.745 171.5 272.166Z" stroke="#202020"/>
<path d="M156.954 278.077L154.422 261.619" stroke="#202020" stroke-linecap="round" stroke-linejoin="round"/>
<circle cx="165.569" cy="287.783" r="0.571325" fill="#202020" stroke="#202020"/>
<circle cx="148.428" cy="287.783" r="0.571325" fill="#202020" stroke="#202020"/>
<path d="M164.534 276.663L166.375 274.275" stroke="#202020" stroke-linecap="round" stroke-linejoin="round"/>
<path d="M142.5 272.166C142.5 272.586 142.854 273.102 143.734 273.542C144.584 273.967 145.793 274.244 147.156 274.244C148.519 274.244 149.729 273.967 150.579 273.542C151.459 273.102 151.812 272.586 151.812 272.166C151.812 271.745 151.459 271.23 150.579 270.79C149.729 270.365 148.519 270.088 147.156 270.088C145.793 270.088 144.584 270.365 143.734 270.79C142.854 271.23 142.5 271.745 142.5 272.166Z" stroke="#202020"/>
<path d="M149.466 276.663L147.625 274.275" stroke="#202020" stroke-linecap="round" stroke-linejoin="round"/>
<path d="M165.601 287.783L164.172 280.369" stroke="#202020" stroke-linecap="round" stroke-linejoin="round"/>
<path d="M165.601 287.783L161.245 281.448" stroke="#202020" stroke-linecap="round" stroke-linejoin="round"/>
<path d="M165.403 287.783L157.286 281.844" stroke="#202020" stroke-linecap="round" stroke-linejoin="round"/>
<path d="M148.289 287.783L149.718 280.369" stroke="#202020" stroke-linecap="round" stroke-linejoin="round"/>
<circle cx="156.999" cy="278.677" r="0.571325" fill="#202020" stroke="#202020"/>
<circle cx="154.32" cy="262.071" r="0.571325" fill="#202020" stroke="#202020"/>
<circle cx="149.231" cy="267.16" r="1.30349" stroke="#202020"/>
<path d="M148.289 287.783L152.645 281.448" stroke="#202020" stroke-linecap="round" stroke-linejoin="round"/>
<path d="M148.487 287.783L156.604 281.844" stroke="#202020" stroke-linecap="round" stroke-linejoin="round"/>
<path d="M154.32 262.071L150.035 266.089" stroke="#202020" stroke-linecap="round" stroke-linejoin="round"/>
<path d="M272.22 277.159C271.642 278.1 270.433 278.458 269.753 278.268C269.708 278.255 269.677 278.243 269.657 278.234C269.64 278.111 269.659 277.759 269.955 277.171C270.808 275.683 271.801 275.508 272.258 275.635C272.307 275.649 272.317 275.661 272.322 275.668C272.323 275.668 272.323 275.669 272.323 275.669C272.336 275.685 272.378 275.744 272.407 275.884C272.467 276.17 272.435 276.635 272.22 277.159ZM269.629 278.217C269.629 278.217 269.63 278.218 269.631 278.219C269.629 278.218 269.629 278.217 269.629 278.217Z" fill="#202020" stroke="#202020" stroke-width="3"/>
<path d="M261.058 277.159C261.635 278.1 262.844 278.458 263.525 278.268C263.57 278.255 263.601 278.243 263.62 278.234C263.638 278.111 263.619 277.759 263.322 277.171C262.47 275.683 261.476 275.508 261.02 275.635C260.971 275.649 260.961 275.661 260.956 275.668C260.955 275.668 260.955 275.669 260.955 275.669C260.942 275.685 260.9 275.744 260.871 275.884C260.811 276.17 260.843 276.635 261.058 277.159ZM263.649 278.217C263.649 278.217 263.648 278.218 263.647 278.219C263.648 278.218 263.649 278.217 263.649 278.217Z" fill="#202020" stroke="#202020" stroke-width="3"/>
<path d="M265.376 285.813C266.375 285.064 266.934 285.201 267.933 285.813" stroke="#202020" stroke-linecap="round" stroke-linejoin="round"/>
<path d="M256.441 266.906C256.952 266.684 257.975 266.94 258.742 267.451" stroke="#202020" stroke-width="0.5" stroke-linecap="round" stroke-linejoin="round"/>
<path d="M258.67 269.605C258.414 268.071 259.181 267.304 260.633 267.54" stroke="#202020" stroke-width="0.5" stroke-linecap="round" stroke-linejoin="round"/>
<path d="M277.012 270.224C276.411 270.288 275.776 270.239 275.363 270.008" stroke="#202020" stroke-width="0.5" stroke-linecap="round" stroke-linejoin="round"/>
<path d="M274.59 268.474C275.302 269.753 274.872 270.748 273.522 271.114" stroke="#202020" stroke-width="0.5" stroke-linecap="round" stroke-linejoin="round"/>
<path d="M270.977 261.826C271.681 262.769 271.672 263.729 271.017 264.607" stroke="#202020" stroke-width="0.5" stroke-linecap="round" stroke-linejoin="round"/>
<path d="M269.226 264.783C270.604 264.061 271.572 264.551 271.801 266.004" stroke="#202020" stroke-width="0.5" stroke-linecap="round" stroke-linejoin="round"/>
<path d="M260.788 264.894C259.553 263.908 259.789 263.586 259.487 262.443" stroke="#202020" stroke-width="0.5" stroke-linecap="round" stroke-linejoin="round"/>
<path d="M263.356 268.474C263.45 270.026 262.607 270.709 261.188 270.323" stroke="#202020" stroke-width="0.5" stroke-linecap="round" stroke-linejoin="round"/>
<path d="M264.381 266.77C263.477 265.859 263.527 264.776 264.46 263.927" stroke="#202020" stroke-width="0.5" stroke-linecap="round" stroke-linejoin="round"/>
<path d="M274.766 264.358C275.525 265.715 275.063 266.696 273.618 266.966" stroke="#202020" stroke-width="0.5" stroke-linecap="round" stroke-linejoin="round"/>
<path d="M271.676 270.323C270.121 270.371 269.464 269.508 269.892 268.101" stroke="#202020" stroke-width="0.5" stroke-linecap="round" stroke-linejoin="round"/>
<path d="M274.34 272.565C277.743 273.606 277.153 280.492 272.039 281.259" stroke="#202020" stroke-linecap="round" stroke-linejoin="round"/>
<path d="M258.887 272.683C255.484 273.723 256.074 280.61 261.188 281.377" stroke="#202020" stroke-linecap="round" stroke-linejoin="round"/>
<path d="M267.012 262.848C267.181 263.616 267.515 265.037 267.012 265.661C266.646 266.26 266.777 266.596 267.012 267.195C267.312 267.88 267.356 268.229 267.012 268.73C266.568 269.673 266.542 270.179 267.012 271.031" stroke="#202020" stroke-linecap="round" stroke-linejoin="round"/>
<path d="M267.23 262.936C262.322 259.013 252.794 262.497 257.719 273.332" stroke="#202020" stroke-linecap="round" stroke-linejoin="round"/>
<path d="M267.486 262.936C271.016 259.268 281.571 262.279 276.201 273.53" stroke="#202020" stroke-linecap="round" stroke-linejoin="round"/>
<path d="M273.829 280.748C267.692 295.579 264.368 291.999 259.509 281.004" stroke="#202020" stroke-linecap="round" stroke-linejoin="round"/>
<path d="M382.22 166.159C381.642 167.1 380.433 167.458 379.753 167.268C379.708 167.255 379.677 167.243 379.657 167.234C379.64 167.111 379.659 166.759 379.955 166.171C380.808 164.683 381.801 164.508 382.258 164.635C382.307 164.649 382.317 164.661 382.322 164.668C382.323 164.668 382.323 164.669 382.323 164.669C382.336 164.685 382.378 164.744 382.407 164.884C382.467 165.17 382.435 165.635 382.22 166.159ZM379.629 167.217C379.629 167.217 379.63 167.218 379.631 167.219C379.629 167.218 379.629 167.217 379.629 167.217Z" fill="#202020" stroke="#202020" stroke-width="3"/>
<path d="M371.058 166.159C371.635 167.1 372.844 167.458 373.525 167.268C373.57 167.255 373.601 167.243 373.62 167.234C373.638 167.111 373.619 166.759 373.322 166.171C372.47 164.683 371.476 164.508 371.02 164.635C370.971 164.649 370.961 164.661 370.956 164.668C370.955 164.668 370.955 164.669 370.955 164.669C370.942 164.685 370.9 164.744 370.871 164.884C370.811 165.17 370.843 165.635 371.058 166.159ZM373.649 167.217C373.649 167.217 373.648 167.218 373.647 167.219C373.648 167.218 373.649 167.217 373.649 167.217Z" fill="#202020" stroke="#202020" stroke-width="3"/>
<path d="M375.376 174.813C376.375 174.064 376.934 174.201 377.933 174.813" stroke="#202020" stroke-linecap="round" stroke-linejoin="round"/>
<path d="M366.441 155.906C366.952 155.684 367.975 155.94 368.742 156.451" stroke="#202020" stroke-width="0.5" stroke-linecap="round" stroke-linejoin="round"/>
<path d="M368.67 158.605C368.414 157.071 369.181 156.304 370.633 156.54" stroke="#202020" stroke-width="0.5" stroke-linecap="round" stroke-linejoin="round"/>
<path d="M387.012 159.224C386.411 159.288 385.776 159.239 385.363 159.008" stroke="#202020" stroke-width="0.5" stroke-linecap="round" stroke-linejoin="round"/>
<path d="M384.59 157.474C385.302 158.753 384.872 159.748 383.522 160.114" stroke="#202020" stroke-width="0.5" stroke-linecap="round" stroke-linejoin="round"/>
<path d="M380.977 150.826C381.681 151.769 381.672 152.729 381.017 153.607" stroke="#202020" stroke-width="0.5" stroke-linecap="round" stroke-linejoin="round"/>
<path d="M379.226 153.783C380.604 153.061 381.572 153.551 381.801 155.004" stroke="#202020" stroke-width="0.5" stroke-linecap="round" stroke-linejoin="round"/>
<path d="M370.788 153.894C369.553 152.908 369.789 152.586 369.487 151.443" stroke="#202020" stroke-width="0.5" stroke-linecap="round" stroke-linejoin="round"/>
<path d="M373.356 157.474C373.45 159.026 372.607 159.709 371.188 159.323" stroke="#202020" stroke-width="0.5" stroke-linecap="round" stroke-linejoin="round"/>
<path d="M374.381 155.77C373.477 154.859 373.527 153.776 374.46 152.927" stroke="#202020" stroke-width="0.5" stroke-linecap="round" stroke-linejoin="round"/>
<path d="M384.766 153.358C385.525 154.715 385.063 155.696 383.618 155.966" stroke="#202020" stroke-width="0.5" stroke-linecap="round" stroke-linejoin="round"/>
<path d="M381.676 159.323C380.121 159.371 379.464 158.508 379.892 157.101" stroke="#202020" stroke-width="0.5" stroke-linecap="round" stroke-linejoin="round"/>
<path d="M384.34 161.565C387.743 162.606 387.153 169.492 382.039 170.259" stroke="#202020" stroke-linecap="round" stroke-linejoin="round"/>
<path d="M368.887 161.683C365.484 162.723 366.074 169.61 371.188 170.377" stroke="#202020" stroke-linecap="round" stroke-linejoin="round"/>
<path d="M377.012 151.848C377.181 152.616 377.515 154.037 377.012 154.661C376.646 155.26 376.777 155.596 377.012 156.195C377.312 156.88 377.356 157.229 377.012 157.73C376.568 158.673 376.542 159.179 377.012 160.031" stroke="#202020" stroke-linecap="round" stroke-linejoin="round"/>
<path d="M377.23 151.936C372.322 148.013 362.794 151.497 367.719 162.332" stroke="#202020" stroke-linecap="round" stroke-linejoin="round"/>
<path d="M377.486 151.936C381.016 148.268 391.571 151.279 386.201 162.53" stroke="#202020" stroke-linecap="round" stroke-linejoin="round"/>
<path d="M383.829 169.748C377.692 184.579 374.368 180.999 369.509 170.004" stroke="#202020" stroke-linecap="round" stroke-linejoin="round"/>
<path d="M267 398.5C258.992 398.5 252.5 392.008 252.5 384C252.5 383.443 252.531 382.894 252.592 382.353C254.015 382.461 255.043 381.724 255.301 380.686C255.442 380.122 255.333 379.511 254.956 379.004C254.676 378.628 254.264 378.329 253.733 378.139C255.985 373.05 261.079 369.5 267 369.5C275.008 369.5 281.5 375.992 281.5 384C281.5 386.515 280.86 388.879 279.735 390.939C279.246 390.649 278.742 390.529 278.263 390.564C277.626 390.611 277.08 390.93 276.718 391.395C276.061 392.241 276.042 393.506 276.967 394.532C274.368 396.992 270.86 398.5 267 398.5Z" stroke="#202020"/>
<circle cx="262" cy="384.263" r="3.18421" stroke="#202020"/>
<circle cx="270.947" cy="385.842" r="2.13158" stroke="#202020"/>
<circle cx="271.474" cy="376.368" r="1.60526" stroke="#202020"/>
<circle cx="267.263" cy="391.632" r="1.60526" stroke="#202020"/>
<path d="M377 290.5C368.992 290.5 362.5 284.008 362.5 276C362.5 275.443 362.531 274.894 362.592 274.353C364.015 274.461 365.043 273.724 365.301 272.686C365.442 272.122 365.333 271.511 364.956 271.004C364.676 270.628 364.264 270.329 363.733 270.139C365.985 265.05 371.079 261.5 377 261.5C385.008 261.5 391.5 267.992 391.5 276C391.5 278.515 390.86 280.879 389.735 282.939C389.246 282.649 388.742 282.529 388.263 282.564C387.626 282.611 387.08 282.93 386.718 283.395C386.061 284.241 386.042 285.506 386.967 286.532C384.368 288.992 380.86 290.5 377 290.5Z" stroke="#202020"/>
<circle cx="372" cy="276.263" r="3.18421" stroke="#202020"/>
<circle cx="380.947" cy="277.842" r="2.13158" stroke="#202020"/>
<circle cx="381.474" cy="268.368" r="1.60526" stroke="#202020"/>
<circle cx="377.263" cy="283.632" r="1.60526" stroke="#202020"/>
<circle cx="267.614" cy="47" r="6.5" stroke="#202020"/>
<path d="M263.13 45.9387C263.474 44.1313 265.359 43.0474 267.479 43.0015C269.586 42.9558 271.576 43.9483 272.083 45.9155C272.104 45.9966 272.114 46.0916 272.114 46.198V48C272.114 48.8284 271.442 49.5 270.614 49.5H264.614C263.786 49.5 263.114 48.8284 263.114 48V46.1407C263.114 46.0633 263.119 45.9959 263.13 45.9387Z" stroke="#202020"/>
<path d="M273.614 49.75C276.614 51.25 275.864 51 275.864 59.5" stroke="#202020" stroke-linecap="round" stroke-linejoin="round"/>
<path d="M261.614 49.75C258.614 50.75 259.35 52.25 259.35 59.5522" stroke="#202020" stroke-linecap="round" stroke-linejoin="round"/>
<line x1="267.614" y1="62" x2="267.614" y2="68" stroke="#202020" stroke-linecap="round" stroke-linejoin="round"/>
<line x1="266.614" y1="56.5" x2="264.614" y2="56.5" stroke="#202020" stroke-linecap="round" stroke-linejoin="round"/>
<line x1="266.614" y1="58.5" x2="264.614" y2="58.5" stroke="#202020" stroke-linecap="round" stroke-linejoin="round"/>
<path d="M274.114 46.5007C276.874 46.5007 276.864 46.5007 275.895 51.5" stroke="#202020" stroke-linecap="round" stroke-linejoin="round"/>
<path d="M261.114 46.5007C258.514 46.5007 258.614 46.25 259.364 51" stroke="#202020" stroke-linecap="round" stroke-linejoin="round"/>
<line x1="273.114" y1="56.5" x2="273.114" y2="69" stroke="#202020" stroke-linecap="round" stroke-linejoin="round"/>
<line x1="262.114" y1="56" x2="262.114" y2="68.5" stroke="#202020" stroke-linecap="round" stroke-linejoin="round"/>
<rect x="259.114" y="59.5" width="2.9671" height="1.83364" rx="0.916821" stroke="#202020"/>
<rect x="273.114" y="59.5" width="2.9671" height="1.83364" rx="0.916821" stroke="#202020"/>
<path d="M268.224 68.103C269.264 66.6619 271.64 66.5995 272.966 68.1132C273.057 68.2173 273.114 68.3766 273.114 68.5762C273.114 69.0864 272.7 69.5 272.19 69.5H269.099C268.555 69.5 268.114 69.0591 268.114 68.5153C268.114 68.336 268.156 68.1971 268.224 68.103Z" stroke="#202020"/>
<path d="M262.224 68.103C263.264 66.6619 265.64 66.5995 266.966 68.1132C267.057 68.2173 267.114 68.3766 267.114 68.5762C267.114 69.0864 266.7 69.5 266.19 69.5H263.099C262.555 69.5 262.114 69.0591 262.114 68.5153C262.114 68.336 262.156 68.1971 262.224 68.103Z" stroke="#202020"/>
<circle cx="269.614" cy="57.5" r="1.5" stroke="#202020"/>
<circle cx="376.614" cy="376" r="6.5" stroke="#202020"/>
<path d="M372.13 374.939C372.474 373.131 374.359 372.047 376.479 372.001C378.586 371.956 380.576 372.948 381.083 374.916C381.104 374.997 381.114 375.092 381.114 375.198V377C381.114 377.828 380.442 378.5 379.614 378.5H373.614C372.786 378.5 372.114 377.828 372.114 377V375.141C372.114 375.063 372.119 374.996 372.13 374.939Z" stroke="#202020"/>
<path d="M382.614 378.75C385.614 380.25 384.864 380 384.864 388.5" stroke="#202020" stroke-linecap="round" stroke-linejoin="round"/>
<path d="M370.614 378.75C367.614 379.75 368.35 381.25 368.35 388.552" stroke="#202020" stroke-linecap="round" stroke-linejoin="round"/>
<line x1="376.614" y1="391" x2="376.614" y2="397" stroke="#202020" stroke-linecap="round" stroke-linejoin="round"/>
<line x1="375.614" y1="385.5" x2="373.614" y2="385.5" stroke="#202020" stroke-linecap="round" stroke-linejoin="round"/>
<line x1="375.614" y1="387.5" x2="373.614" y2="387.5" stroke="#202020" stroke-linecap="round" stroke-linejoin="round"/>
<path d="M383.114 375.501C385.874 375.501 385.864 375.501 384.895 380.5" stroke="#202020" stroke-linecap="round" stroke-linejoin="round"/>
<path d="M370.114 375.501C367.514 375.501 367.614 375.25 368.364 380" stroke="#202020" stroke-linecap="round" stroke-linejoin="round"/>
<line x1="382.114" y1="385.5" x2="382.114" y2="398" stroke="#202020" stroke-linecap="round" stroke-linejoin="round"/>
<line x1="371.114" y1="385" x2="371.114" y2="397.5" stroke="#202020" stroke-linecap="round" stroke-linejoin="round"/>
<rect x="368.114" y="388.5" width="2.9671" height="1.83364" rx="0.916821" stroke="#202020"/>
<rect x="382.114" y="388.5" width="2.9671" height="1.83364" rx="0.916821" stroke="#202020"/>
<path d="M377.224 397.103C378.264 395.662 380.64 395.599 381.966 397.113C382.057 397.217 382.114 397.377 382.114 397.576C382.114 398.086 381.7 398.5 381.19 398.5H378.099C377.555 398.5 377.114 398.059 377.114 397.515C377.114 397.336 377.156 397.197 377.224 397.103Z" stroke="#202020"/>
<path d="M371.224 397.103C372.264 395.662 374.64 395.599 375.966 397.113C376.057 397.217 376.114 397.377 376.114 397.576C376.114 398.086 375.7 398.5 375.19 398.5H372.099C371.555 398.5 371.114 398.059 371.114 397.515C371.114 397.336 371.156 397.197 371.224 397.103Z" stroke="#202020"/>
<circle cx="378.614" cy="386.5" r="1.5" stroke="#202020"/>
<path d="M276.406 168.494C276.406 168.839 276.242 169.212 275.854 169.599C275.463 169.988 274.873 170.361 274.104 170.685C272.567 171.332 270.409 171.744 268 171.744C265.591 171.744 263.433 171.332 261.896 170.685C261.127 170.361 260.537 169.988 260.146 169.599C259.758 169.212 259.594 168.839 259.594 168.494C259.594 168.148 259.758 167.775 260.146 167.389C260.537 167 261.127 166.627 261.896 166.303C263.433 165.656 265.591 165.244 268 165.244C270.409 165.244 272.567 165.656 274.104 166.303C274.873 166.627 275.463 167 275.854 167.389C276.242 167.775 276.406 168.148 276.406 168.494Z" stroke="#202020"/>
<path d="M282.5 162.166C282.5 162.586 282.146 163.102 281.266 163.542C280.416 163.967 279.207 164.244 277.844 164.244C276.481 164.244 275.271 163.967 274.421 163.542C273.541 163.102 273.188 162.586 273.188 162.166C273.188 161.745 273.541 161.23 274.421 160.79C275.271 160.365 276.481 160.088 277.844 160.088C279.207 160.088 280.416 160.365 281.266 160.79C282.146 161.23 282.5 161.745 282.5 162.166Z" stroke="#202020"/>
<path d="M267.954 168.077L265.422 151.619" stroke="#202020" stroke-linecap="round" stroke-linejoin="round"/>
<circle cx="276.569" cy="177.783" r="0.571325" fill="#202020" stroke="#202020"/>
<circle cx="259.428" cy="177.783" r="0.571325" fill="#202020" stroke="#202020"/>
<path d="M275.534 166.663L277.375 164.275" stroke="#202020" stroke-linecap="round" stroke-linejoin="round"/>
<path d="M253.5 162.166C253.5 162.586 253.854 163.102 254.734 163.542C255.584 163.967 256.793 164.244 258.156 164.244C259.519 164.244 260.729 163.967 261.579 163.542C262.459 163.102 262.812 162.586 262.812 162.166C262.812 161.745 262.459 161.23 261.579 160.79C260.729 160.365 259.519 160.088 258.156 160.088C256.793 160.088 255.584 160.365 254.734 160.79C253.854 161.23 253.5 161.745 253.5 162.166Z" stroke="#202020"/>
<path d="M260.466 166.663L258.625 164.275" stroke="#202020" stroke-linecap="round" stroke-linejoin="round"/>
<path d="M276.601 177.783L275.172 170.369" stroke="#202020" stroke-linecap="round" stroke-linejoin="round"/>
<path d="M276.601 177.783L272.245 171.448" stroke="#202020" stroke-linecap="round" stroke-linejoin="round"/>
<path d="M276.403 177.783L268.286 171.844" stroke="#202020" stroke-linecap="round" stroke-linejoin="round"/>
<path d="M259.289 177.783L260.718 170.369" stroke="#202020" stroke-linecap="round" stroke-linejoin="round"/>
<circle cx="267.999" cy="168.677" r="0.571325" fill="#202020" stroke="#202020"/>
<circle cx="265.32" cy="152.071" r="0.571325" fill="#202020" stroke="#202020"/>
<circle cx="260.231" cy="157.16" r="1.30349" stroke="#202020"/>
<path d="M259.289 177.783L263.645 171.448" stroke="#202020" stroke-linecap="round" stroke-linejoin="round"/>
<path d="M259.487 177.783L267.604 171.844" stroke="#202020" stroke-linecap="round" stroke-linejoin="round"/>
<path d="M265.32 152.071L261.035 156.089" stroke="#202020" stroke-linecap="round" stroke-linejoin="round"/>
<path d="M384.406 59.4939C384.406 59.8394 384.242 60.2125 383.854 60.5992C383.463 60.9878 382.873 61.3608 382.104 61.6847C380.567 62.3318 378.409 62.7439 376 62.7439C373.591 62.7439 371.433 62.3318 369.896 61.6847C369.127 61.3608 368.537 60.9878 368.146 60.5992C367.758 60.2125 367.594 59.8394 367.594 59.4939C367.594 59.1484 367.758 58.7753 368.146 58.3886C368.537 58 369.127 57.627 369.896 57.3031C371.433 56.656 373.591 56.2439 376 56.2439C378.409 56.2439 380.567 56.656 382.104 57.3031C382.873 57.627 383.463 58 383.854 58.3886C384.242 58.7753 384.406 59.1484 384.406 59.4939Z" stroke="#202020"/>
<path d="M390.5 53.1658C390.5 53.5863 390.146 54.1016 389.266 54.5416C388.416 54.9666 387.207 55.2439 385.844 55.2439C384.481 55.2439 383.271 54.9666 382.421 54.5416C381.541 54.1016 381.188 53.5863 381.188 53.1658C381.188 52.7453 381.541 52.2299 382.421 51.79C383.271 51.365 384.481 51.0876 385.844 51.0876C387.207 51.0876 388.416 51.365 389.266 51.79C390.146 52.2299 390.5 52.7453 390.5 53.1658Z" stroke="#202020"/>
<path d="M375.954 59.0768L373.422 42.6189" stroke="#202020" stroke-linecap="round" stroke-linejoin="round"/>
<circle cx="384.569" cy="68.7831" r="0.571325" fill="#202020" stroke="#202020"/>
<circle cx="367.428" cy="68.7831" r="0.571325" fill="#202020" stroke="#202020"/>
<path d="M383.534 57.6631L385.375 55.2751" stroke="#202020" stroke-linecap="round" stroke-linejoin="round"/>
<path d="M361.5 53.1658C361.5 53.5863 361.854 54.1016 362.734 54.5416C363.584 54.9666 364.793 55.2439 366.156 55.2439C367.519 55.2439 368.729 54.9666 369.579 54.5416C370.459 54.1016 370.812 53.5863 370.812 53.1658C370.812 52.7453 370.459 52.2299 369.579 51.79C368.729 51.365 367.519 51.0876 366.156 51.0876C364.793 51.0876 363.584 51.365 362.734 51.79C361.854 52.2299 361.5 52.7453 361.5 53.1658Z" stroke="#202020"/>
<path d="M368.466 57.6631L366.625 55.2751" stroke="#202020" stroke-linecap="round" stroke-linejoin="round"/>
<path d="M384.601 68.7831L383.172 61.3689" stroke="#202020" stroke-linecap="round" stroke-linejoin="round"/>
<path d="M384.601 68.7831L380.245 62.4476" stroke="#202020" stroke-linecap="round" stroke-linejoin="round"/>
<path d="M384.403 68.7831L376.286 62.8436" stroke="#202020" stroke-linecap="round" stroke-linejoin="round"/>
<path d="M367.289 68.7831L368.718 61.3689" stroke="#202020" stroke-linecap="round" stroke-linejoin="round"/>
<circle cx="375.999" cy="59.6769" r="0.571325" fill="#202020" stroke="#202020"/>
<circle cx="373.32" cy="43.0713" r="0.571325" fill="#202020" stroke="#202020"/>
<circle cx="368.231" cy="48.1601" r="1.30349" stroke="#202020"/>
<path d="M367.289 68.7831L371.645 62.4476" stroke="#202020" stroke-linecap="round" stroke-linejoin="round"/>
<path d="M367.487 68.7831L375.604 62.8436" stroke="#202020" stroke-linecap="round" stroke-linejoin="round"/>
<path d="M373.32 43.0713L369.035 47.0888" stroke="#202020" stroke-linecap="round" stroke-linejoin="round"/>
</g>
<defs>
<clipPath id="clip0">
<rect width="430" height="440" fill="white"/>
</clipPath>
</defs>
</svg>
