<svg width="62" height="62" viewBox="0 0 62 62" fill="none" xmlns="http://www.w3.org/2000/svg">
<circle cx="30.779" cy="30.779" r="29.779" stroke="#EC756B" stroke-width="2"/>
<path d="M10.5886 30.9868C10.5886 20.0702 19.4383 11.2206 30.3549 11.2206C41.2715 11.2206 50.1211 20.0702 50.1211 30.9868C50.1211 35.2268 48.7873 39.1523 46.5162 42.3704C46.3618 42.5892 46.0923 42.7322 45.7754 42.7322H45.76H45.7444H45.7287H45.7129H45.697H45.681H45.6649H45.6487H45.6324H45.6159H45.5994H45.5828H45.566H45.5492H45.5322H45.5151H45.498H45.4807H45.4633H45.4459H45.4283H45.4106H45.3928H45.3749H45.3569H45.3388H45.3206H45.3023H45.284H45.2655H45.2469H45.2282H45.2094H45.1905H45.1715H45.1524H45.1332H45.1139H45.0945H45.075H45.0555H45.0358H45.016H44.9962H44.9762H44.9561H44.936H44.9157H44.8954H44.8749H44.8544H44.8338H44.8131H44.7922H44.7713H44.7503H44.7292H44.7081H44.6868H44.6654H44.644H44.6224H44.6008H44.5791H44.5572H44.5353H44.5133H44.4912H44.4691H44.4468H44.4245H44.402H44.3795H44.3569H44.3342H44.3114H44.2885H44.2656H44.2425H44.2194H44.1962H44.1729H44.1495H44.126H44.1025H44.0789H44.0551H44.0313H44.0075H43.9835H43.9595H43.9353H43.9111H43.8868H43.8625H43.838H43.8135H43.7889H43.7642H43.7394H43.7146H43.6896H43.6646H43.6395H43.6144H43.5891H43.5638H43.5384H43.513H43.4874H43.4618H43.4361H43.4103H43.3845H43.3586H43.3326H43.3065H43.2804H43.2541H43.2279H43.2015H43.1751H43.1485H43.122H43.0953H43.0686H43.0418H43.0149H42.988H42.961H42.9339H42.9068H42.8796H42.8523H42.8249H42.7975H42.77H42.7425H42.7149H42.6872H42.6594H42.6316H42.6037H42.5758H42.5477H42.5197H42.4915H42.4633H42.435H42.4067H42.3783H42.3498H42.3213H42.2927H42.264H42.2353H42.2065H42.1777H42.1488H42.1198H42.0908H42.0617H42.0325H42.0033H41.9741H41.9447H41.9154H41.8859H41.8564H41.8269H41.7972H41.7676H41.7378H41.708H41.6782H41.6483H41.6183H41.5883H41.5583H41.5281H41.498H41.4677H41.4375H41.4071H41.3767H41.3463H41.3158H41.2852H41.2546H41.224H41.1933H41.1625H41.1317H41.1008H41.0699H41.039H41.008H40.9769H40.9458H40.9146H40.8834H40.8522H40.8209H40.7895H40.7581H40.7267H40.6952H40.6636H40.6321H40.6004H40.5688H40.537H40.5053H40.4735H40.4416H40.4097H40.3778H40.3458H40.3138H40.2817H40.2496H40.2174H40.1852H40.153H40.1207H40.0884H40.056H40.0236H39.9912H39.9587H39.9262H39.8936H39.861H39.8284H39.7957H39.763H39.7302H39.6974H39.6646H39.6317H39.5988H39.5659H39.5329H39.4999H39.4669H39.4338H39.4007H39.3675H39.3343H39.3011H39.2679H39.2346H39.2013H39.1679H39.1346H39.1011H39.0677H39.0342H39.0007H38.9672H38.9336H38.9H38.8664H38.8327H38.7991H38.7653H38.7316H38.6978H38.664H38.6302H38.5964H38.5625H38.5286H38.4946H38.4607H38.4267H38.3927H38.3586H38.3246H38.2905H38.2564H38.2222H38.1881H38.1539H38.1197H38.0855H38.0512H38.0169H37.9826H37.9483H37.914H37.8796H37.8453H37.8109H37.7764H37.742H37.7075H37.6731H37.6386H37.604H37.5695H37.535H37.5004H37.4658H37.4312H37.3966H37.3619H37.3273H37.2926H37.2579H37.2232H37.1885H37.1538H37.119H37.0843H37.0495H37.0147H36.9799H36.9451H36.9103H36.8755H36.8406H36.8057H36.7709H36.736H36.7011H36.6662H36.6313H36.5964H36.5614H36.5265H36.4915H36.4566H36.4216H36.3866H36.3517H36.3167H36.2817H36.2467H36.2116H36.1766H36.1416H36.1066H36.0715H36.0365H36.0015H35.9664H35.9314H35.8963H35.8612H35.8262H35.7911H35.7561H35.721H35.6859H35.6508H35.6158H35.5807H35.5456H35.5105H35.4755H35.4404H35.4053H35.3702H35.3352H35.3001H35.265H35.2299H35.1949H35.1598H35.1247H35.0897H35.0546H35.0196H34.9845H34.9495H34.9145H34.8794H34.8444H34.8094H34.7744H34.7394H34.7043H34.6694H34.6344H34.5994H34.5644H34.5294H34.4945H34.4595H34.4246H34.3897H34.3547H34.3198H34.2849H34.25H34.2152H34.1803H34.1454H34.1106H34.0758H34.0409H34.0061H33.9713H33.9366H33.9018H33.867H33.8323H33.7976H33.7629H33.7282H33.6935H33.6588H33.6242H33.5895H33.5549H33.5203H33.4857H33.4512H33.4166H33.3821H33.3476H33.3131H33.2786H33.2442H33.2097H33.1753H33.1409H33.1065H33.0722H33.0379H33.0036H32.9693H32.935H32.9008H32.8665H32.8323H32.7982H32.764H32.7299H32.6958H32.6617H32.6276H32.5936H32.5596H32.5256H32.4917H32.4577H32.4238H32.39H32.3561H32.3223H32.2885H32.2547H32.221H32.1873H32.1536H32.12H32.0864H32.0528H32.0192H31.9857H31.9522H31.9187H31.8853H31.8519H31.8185H31.7852H31.7519H31.7186H31.6854H31.6522H31.619H31.5858H31.5527H31.5197H31.4866H31.4536H31.4207H31.3878H31.3549H31.322H31.2892H31.2564H31.2237H31.191H31.1583H31.1257H31.0931H31.0605H31.028H30.9955H30.9631H30.9307H30.8984H30.8661H30.8338H30.8016H30.7694H30.7372H30.7051H30.6731H30.641H30.6091H30.5771H30.5453H30.5134H30.4816H30.4499H30.4182H30.3865H30.3549H30.3233H30.2916H30.2599H30.2281H30.1963H30.1645H30.1326H30.1007H30.0687H30.0367H30.0046H29.9725H29.9404H29.9082H29.876H29.8437H29.8114H29.779H29.7466H29.7142H29.6817H29.6492H29.6167H29.5841H29.5515H29.5188H29.4861H29.4533H29.4206H29.3877H29.3549H29.322H29.2891H29.2561H29.2231H29.1901H29.157H29.1239H29.0908H29.0576H29.0244H28.9912H28.9579H28.9246H28.8912H28.8579H28.8245H28.791H28.7576H28.7241H28.6905H28.657H28.6234H28.5898H28.5561H28.5224H28.4887H28.455H28.4212H28.3875H28.3536H28.3198H28.2859H28.252H28.2181H28.1841H28.1502H28.1162H28.0821H28.0481H28.014H27.9799H27.9458H27.9116H27.8774H27.8432H27.809H27.7748H27.7405H27.7062H27.6719H27.6376H27.6032H27.5688H27.5344H27.5H27.4656H27.4311H27.3967H27.3622H27.3277H27.2931H27.2586H27.224H27.1894H27.1548H27.1202H27.0856H27.0509H27.0163H26.9816H26.9469H26.9122H26.8775H26.8427H26.808H26.7732H26.7384H26.7036H26.6688H26.634H26.5992H26.5643H26.5295H26.4946H26.4597H26.4248H26.3899H26.355H26.3201H26.2852H26.2502H26.2153H26.1803H26.1453H26.1104H26.0754H26.0404H26.0054H25.9704H25.9354H25.9004H25.8654H25.8303H25.7953H25.7603H25.7252H25.6902H25.6551H25.6201H25.585H25.5499H25.5149H25.4798H25.4447H25.4097H25.3746H25.3395H25.3045H25.2694H25.2343H25.1992H25.1641H25.1291H25.094H25.0589H25.0238H24.9888H24.9537H24.9186H24.8836H24.8485H24.8135H24.7784H24.7433H24.7083H24.6733H24.6382H24.6032H24.5682H24.5331H24.4981H24.4631H24.4281H24.3931H24.3581H24.3231H24.2881H24.2532H24.2182H24.1833H24.1483H24.1134H24.0785H24.0436H24.0087H23.9738H23.9389H23.904H23.8691H23.8343H23.7995H23.7646H23.7298H23.695H23.6602H23.6255H23.5907H23.556H23.5212H23.4865H23.4518H23.4171H23.3825H23.3478H23.3132H23.2786H23.244H23.2094H23.1748H23.1402H23.1057H23.0712H23.0367H23.0022H22.9678H22.9333H22.8989H22.8645H22.8301H22.7958H22.7614H22.7271H22.6928H22.6585H22.6243H22.5901H22.5559H22.5217H22.4875H22.4534H22.4193H22.3852H22.3511H22.3171H22.2831H22.2491H22.2151H22.1812H22.1473H22.1134H22.0795H22.0457H22.0119H21.9782H21.9444H21.9107H21.877H21.8434H21.8097H21.7761H21.7426H21.709H21.6755H21.6421H21.6086H21.5752H21.5418H21.5085H21.4752H21.4419H21.4086H21.3754H21.3422H21.3091H21.276H21.2429H21.2098H21.1768H21.1439H21.1109H21.078H21.0452H21.0123H20.9795H20.9468H20.9141H20.8814H20.8488H20.8162H20.7836H20.7511H20.7186H20.6861H20.6537H20.6214H20.5891H20.5568H20.5245H20.4923H20.4602H20.4281H20.396H20.364H20.332H20.3H20.2681H20.2363H20.2045H20.1727H20.141H20.1093H20.0777H20.0461H20.0146H19.9831H19.9516H19.9202H19.8889H19.8576H19.8263H19.7951H19.764H19.7329H19.7018H19.6708H19.6398H19.6089H19.5781H19.5473H19.5165H19.4858H19.4551H19.4245H19.394H19.3635H19.333H19.3026H19.2723H19.242H19.2118H19.1816H19.1515H19.1214H19.0914H19.0615H19.0316H19.0017H18.9719H18.9422H18.9125H18.8829H18.8533H18.8238H18.7944H18.765H18.7357H18.7064H18.6772H18.6481H18.619H18.59H18.561H18.5321H18.5032H18.4745H18.4457H18.4171H18.3885H18.36H18.3315H18.3031H18.2747H18.2465H18.2182H18.1901H18.162H18.134H18.106H18.0782H18.0503H18.0226H17.9949H17.9673H17.9397H17.9122H17.8848H17.8575H17.8302H17.803H17.7758H17.7488H17.7217H17.6948H17.668H17.6412H17.6144H17.5878H17.5612H17.5347H17.5083H17.4819H17.4556H17.4294H17.4033H17.3772H17.3512H17.3253H17.2994H17.2737H17.248H17.2223H17.1968H17.1713H17.1459H17.1206H17.0954H17.0702H17.0451H17.0201H16.9952H16.9704H16.9456H16.9209H16.8963H16.8718H16.8473H16.8229H16.7986H16.7744H16.7503H16.7263H16.7023H16.6784H16.6546H16.6309H16.6073H16.5837H16.5603H16.5369H16.5136H16.4904H16.4672H16.4442H16.4212H16.3984H16.3756H16.3529H16.3303H16.3077H16.2853H16.2629H16.2407H16.2185H16.1964H16.1744H16.1525H16.1307H16.109H16.0873H16.0658H16.0443H16.023H16.0017H15.9805H15.9594H15.9384H15.9175H15.8967H15.876H15.8554H15.8348H15.8144H15.794H15.7738H15.7536H15.7336H15.7136H15.6937H15.674H15.6543H15.6347H15.6152H15.5958H15.5766H15.5574H15.5383H15.5193H15.5004H15.4816H15.4629H15.4443H15.4258H15.4074H15.3891H15.3709H15.3528H15.3348H15.317H15.2992H15.2815H15.2639H15.2464H15.2291H15.2118H15.1946H15.1776H15.1606H15.1437H15.127H15.1104H15.0938H15.0774H15.0611H15.0448H15.0287H15.0127H14.9968H14.9811H14.9654H14.9498H14.9343C14.6175 42.7322 14.348 42.5892 14.1936 42.3704C11.9225 39.1523 10.5886 35.2268 10.5886 30.9868Z" stroke="#EC756B" stroke-width="2"/>
<path d="M30.4531 13.8872L36.5927 28.7649L31.0279 26.708C30.5909 26.5465 30.1111 26.5426 29.6715 26.6971L24.0744 28.6638L30.4531 13.8872Z" stroke="#EC756B" stroke-width="2"/>
<path d="M30.3624 27.2509L30.3625 39.7509" stroke="#EC756B" stroke-width="2" stroke-linecap="round" stroke-linejoin="round"/>
<circle cx="30.251" cy="35.2509" r="3" fill="#EC756B" stroke="#EC756B"/>
<line x1="20.251" y1="50.2509" x2="41.251" y2="50.2509" stroke="#EC756B" stroke-width="2" stroke-linecap="round" stroke-linejoin="round"/>
</svg>
