<svg width="27" height="61" viewBox="0 0 27 61" fill="none" xmlns="http://www.w3.org/2000/svg">
<path d="M26 47.2847C26 54.1882 20.4036 59.7847 13.5 59.7847C6.59644 59.7847 1 54.1882 1 47.2847C1 42.4487 3.74598 38.2524 7.76841 36.173C8.06208 36.0212 8.19237 35.7768 8.22872 35.7066C8.28192 35.604 8.31335 35.5068 8.33189 35.442C8.37015 35.3084 8.39559 35.1608 8.41448 35.0254C8.45348 34.7457 8.48351 34.3737 8.50777 33.9391C8.5567 33.0625 8.58682 31.8396 8.6032 30.3861C8.63601 27.4747 8.61411 23.5861 8.57053 19.5762C8.52539 15.4227 8.45716 11.1457 8.40174 7.67137C8.35956 5.02773 8.3248 2.84885 8.31327 1.54278C11.2184 0.818756 15.0958 0.819082 18 1.54378C18.0004 4.72358 18.0057 12.497 18.0841 19.7853C18.1269 23.7646 18.1915 27.6065 18.2894 30.4792C18.3382 31.9133 18.3957 33.1187 18.4641 33.9827C18.498 34.4112 18.5362 34.7779 18.5812 35.0537C18.603 35.1875 18.6316 35.3329 18.6724 35.4645C18.6922 35.5284 18.7252 35.6232 18.7793 35.7231C18.8167 35.7921 18.9472 36.0259 19.2316 36.173C23.254 38.2524 26 42.4487 26 47.2847Z" stroke="#EC756B" stroke-width="2"/>
<line x1="18" y1="16" x2="13" y2="16" stroke="#EC756B" stroke-width="2" stroke-linecap="round" stroke-linejoin="round"/>
<path d="M18 9.91315C16.7602 9.43883 16.1101 9.47635 15 9.91315C13.441 10.4778 12.5606 10.4915 11 9.91315C10.2781 9.60607 9.35102 9.56302 8.5 9.91315" stroke="#EC756B" stroke-width="2" stroke-linecap="round" stroke-linejoin="round"/>
<line x1="18" y1="20" x2="15" y2="20" stroke="#EC756B" stroke-width="2" stroke-linecap="round" stroke-linejoin="round"/>
<line x1="18" y1="24" x2="13" y2="24" stroke="#EC756B" stroke-width="2" stroke-linecap="round" stroke-linejoin="round"/>
<path d="M13 56C19.2805 56.5853 23.7806 49.5 21.7807 44" stroke="#EC756B" stroke-width="2" stroke-linecap="round" stroke-linejoin="round"/>
</svg>
