<svg width="88" height="88" viewBox="0 0 88 88" fill="none" xmlns="http://www.w3.org/2000/svg">
<path d="M44 86.5C20.5279 86.5 1.5 67.4721 1.5 44C1.5 42.3784 1.59075 40.7786 1.76734 39.2052C5.93672 39.5081 8.95485 37.3425 9.71602 34.2881C10.1309 32.6231 9.81078 30.8192 8.69847 29.3252C7.87863 28.224 6.67458 27.3482 5.12929 26.788C11.7366 11.8889 26.6568 1.5 44 1.5C67.4721 1.5 86.5 20.5279 86.5 44C86.5 51.3585 84.6311 58.2765 81.3429 64.3094C79.9117 63.4682 78.4397 63.1183 77.0345 63.2222C75.1585 63.3608 73.5466 64.3002 72.4803 65.6715C70.5457 68.1595 70.4898 71.8759 73.189 74.8911C65.5743 82.089 55.3035 86.5 44 86.5Z" stroke="#EC756B" stroke-width="3"/>
<circle cx="29.3333" cy="44.7719" r="9.80702" stroke="#EC756B" stroke-width="2"/>
<circle cx="55.5789" cy="49.4035" r="6.7193" stroke="#EC756B" stroke-width="2"/>
<circle cx="57.1228" cy="21.614" r="5.17544" stroke="#EC756B" stroke-width="2"/>
<circle cx="44.7719" cy="66.3859" r="5.17544" stroke="#EC756B" stroke-width="2"/>
</svg>
